<svg width="16" height="17" viewBox="0 0 16 17" fill="none" xmlns="http://www.w3.org/2000/svg">
<g id="svg">
<path id="Vector" d="M11.2021 9.88986C11.3488 9.74468 11.5155 9.62245 11.7021 9.52319C11.8903 9.42393 12.0992 9.37431 12.3288 9.37431C12.5362 9.37431 12.7236 9.41356 12.891 9.49208C13.0569 9.5706 13.2081 9.6669 13.3444 9.78097L15.4688 11.9054C15.7295 12.1662 15.8962 12.4558 15.9688 12.7743C16.0414 13.0913 15.9999 13.4062 15.8444 13.7188C15.7925 13.8017 15.7347 13.8876 15.671 13.9765C15.6088 14.0654 15.5569 14.1358 15.5155 14.1876C15.3703 14.3432 15.2347 14.4862 15.1088 14.6165C14.9844 14.7469 14.8384 14.8958 14.671 15.0632L14.2977 15.4054C14.0369 15.6558 13.7658 15.8462 13.4844 15.9765C13.2029 16.1069 12.8955 16.1825 12.5621 16.2032L12.3599 16.2188H12.1866L11.8288 16.1876C11.3592 16.1358 10.8955 16.0313 10.4377 15.8743C9.97991 15.7187 9.49028 15.521 8.9688 15.281C8.40584 14.9995 7.86435 14.6973 7.34435 14.3743C6.82287 14.0513 6.32509 13.7054 5.85102 13.3365C5.37695 12.9662 4.92658 12.5728 4.49991 12.1565C4.07324 11.7506 3.66732 11.318 3.28213 10.8588L3.26658 10.8276C2.93324 10.4425 2.63102 10.0573 2.35991 9.67208C2.07843 9.2869 1.82287 8.90394 1.59324 8.52319C1.36509 8.14245 1.15695 7.75949 0.968798 7.37431C0.79102 6.99949 0.629539 6.60912 0.484354 6.20319C0.285835 5.70245 0.15028 5.23875 0.0776871 4.81208C0.00509448 4.38542 -0.0156463 3.96912 0.0154648 3.56319C0.046576 3.2506 0.125094 2.96097 0.25102 2.69431C0.375465 2.42912 0.547317 2.18764 0.766576 1.96986L2.03102 0.703194C2.19843 0.547639 2.37546 0.427639 2.56213 0.343194C2.75028 0.260231 2.94806 0.21875 3.15546 0.21875C3.35398 0.21875 3.53621 0.255046 3.70213 0.327639C3.86954 0.400231 4.02065 0.494306 4.15546 0.609861L4.39102 0.827639L4.63991 1.07875L5.23324 1.68764L6.29769 2.73431C6.63102 3.06764 6.80806 3.4269 6.8288 3.81208C6.84954 4.19727 6.7088 4.56171 6.40658 4.90542L6.29769 5.03208L5.54658 5.78097L5.28213 6.03208L5.06213 6.23431L5.09324 6.20319L5.18658 6.04764L5.12435 6.15653L5.04658 6.24986L5.17102 6.51653C5.27621 6.73431 5.40139 6.95505 5.54658 7.17875C5.69324 7.40393 5.85991 7.63579 6.04658 7.87431L6.1088 7.95208C6.53695 8.48394 6.97695 8.96097 7.4288 9.38319C7.88213 9.80542 8.35398 10.1832 8.84435 10.5165L9.18658 10.7499L9.93769 11.141L11.2021 9.88986ZM1.92213 3.12542C1.83917 3.19801 1.77398 3.28394 1.72658 3.38319C1.67917 3.48245 1.65546 3.58912 1.65546 3.70319C1.63472 3.97431 1.65028 4.26319 1.70213 4.56986C1.75546 4.87801 1.85991 5.23505 2.01546 5.64097C2.27621 6.33875 2.60954 7.02319 3.01546 7.69431C3.42139 8.3669 3.92139 9.06245 4.51546 9.78097C4.86954 10.1973 5.23917 10.5936 5.62435 10.9699C6.00954 11.3447 6.4162 11.6988 6.84435 12.0321C7.27102 12.3654 7.71324 12.678 8.17102 12.9699C8.61991 13.2499 9.0888 13.5099 9.57769 13.7499L9.67102 13.7965C10.1095 14.0054 10.5132 14.1721 10.8821 14.2965C11.2525 14.4225 11.6147 14.5062 11.9688 14.5476L12.251 14.5788H12.3599C12.5258 14.5788 12.6688 14.5528 12.7888 14.501C12.9088 14.4476 13.0362 14.3536 13.171 14.2188L13.5155 13.8899C13.6725 13.7447 13.8103 13.6099 13.9288 13.4854C14.0488 13.3595 14.1769 13.2188 14.3132 13.0632L12.3288 11.0943L11.0932 12.3121C11.0518 12.3536 11.0125 12.3899 10.9755 12.421C10.9399 12.4536 10.8962 12.4854 10.8444 12.5165C10.7184 12.6099 10.5799 12.6802 10.4288 12.7276C10.2777 12.7736 10.1192 12.7965 9.95324 12.7965C9.8288 12.7965 9.70658 12.7839 9.58658 12.7587C9.46658 12.7321 9.3488 12.6876 9.23324 12.6254L8.76658 12.3743C8.66139 12.3225 8.56732 12.2736 8.48435 12.2276C8.40139 12.1802 8.32361 12.1358 8.25102 12.0943L8.29769 12.1254C7.6725 11.7299 7.07621 11.2743 6.5088 10.7587C5.93991 10.2432 5.40065 9.67282 4.89102 9.04764L4.8288 8.96986C4.51621 8.59356 4.25546 8.23134 4.04658 7.88319C3.83769 7.53357 3.65546 7.17134 3.49991 6.79653L3.43769 6.60986C3.38584 6.36986 3.37769 6.13505 3.41324 5.90542C3.45028 5.67727 3.55695 5.45875 3.73324 5.24986L3.87546 5.09431L4.15546 4.82764L4.40658 4.60986L5.12435 3.87431L4.12435 2.88986L3.62435 2.37431C3.58287 2.33282 3.54139 2.29134 3.49991 2.24986C3.45843 2.20838 3.41695 2.1669 3.37546 2.12542L3.13991 1.90542L1.92213 3.12542Z" fill="white"/>
</g>
</svg>
