<svg width="1440" height="756" viewBox="0 0 1440 756" fill="none" xmlns="http://www.w3.org/2000/svg">
<path d="M-10.1645 -19.5596H1520.35C1525.26 535.113 1404.2 786.611 1157.18 734.935C786.638 657.421 343.423 835.479 -10.1645 611.389C-248.612 484.071 -248.612 273.754 -10.1645 -19.5596Z" fill="#00B6F1" fill-opacity="0.431081"/>
<path d="M-10.1645 -86H1520.35C1658.97 485.85 1604.76 745.936 1357.74 694.261C987.196 616.747 343.423 860.076 -10.1645 635.986C-248.612 508.667 -248.612 268.005 -10.1645 -86Z" fill="url(#paint0_linear_1806_3453)"/>
<mask id="mask0_1806_3453" style="mask-type:luminance" maskUnits="userSpaceOnUse" x="-189" y="-86" width="1785" height="820">
<path d="M-10.1645 -86H1520.35C1658.97 485.85 1604.76 745.936 1357.74 694.261C987.196 616.747 343.423 860.076 -10.1645 635.986C-248.612 508.667 -248.612 268.005 -10.1645 -86Z" fill="white"/>
</mask>
<g mask="url(#mask0_1806_3453)">
<path opacity="0.08" fill-rule="evenodd" clip-rule="evenodd" d="M645.07 403.582C640.628 390.483 630.445 373.181 613.961 351.961C612.383 349.93 610.827 347.965 609.293 346.066C606.897 345.948 604.438 345.861 601.914 345.804C577.783 345.259 559.5 347.703 546.923 352.472C534.726 357.097 517.184 368.138 494.537 386.121C492.378 387.836 490.289 389.521 488.271 391.175C488.241 393.857 488.237 396.62 488.258 399.462C488.467 427.375 490.996 447.617 495.246 460.335C499.513 473.103 509.516 490.327 525.823 511.726C527.534 513.971 529.217 516.136 530.873 518.22C533.466 518.172 536.13 518.098 538.867 517.998C567.284 516.961 587.764 513.746 600.448 508.936C613.558 503.965 629.129 493.388 646.845 476.596C648.625 474.909 650.343 473.238 651.999 471.585C652.043 469.217 652.061 466.786 652.059 464.296C652.038 436.859 649.507 416.669 645.07 403.582Z" stroke="#00B6F1" stroke-width="30" stroke-linecap="round"/>
</g>
<mask id="mask1_1806_3453" style="mask-type:luminance" maskUnits="userSpaceOnUse" x="-189" y="-86" width="1785" height="820">
<path d="M-10.1645 -86H1520.35C1658.97 485.85 1604.76 745.936 1357.74 694.261C987.196 616.747 343.423 860.076 -10.1645 635.986C-248.612 508.667 -248.612 268.005 -10.1645 -86Z" fill="white"/>
</mask>
<g mask="url(#mask1_1806_3453)">
<path opacity="0.240048" fill-rule="evenodd" clip-rule="evenodd" d="M138.018 389.707C225.04 399.261 288.674 414.058 328.922 434.099C369.169 454.14 420.441 496.559 482.737 561.357C479.037 642.924 467.517 705.312 448.179 748.519C428.84 791.727 386.352 850.006 320.714 923.357C233.655 912.938 170.572 897.879 131.465 878.179C92.3588 858.48 40.7785 815.779 -23.2755 750.078C-10.351 650.312 5.43124 579.605 24.0711 537.959C42.7111 496.313 80.6933 446.896 138.018 389.707Z" fill="url(#paint1_linear_1806_3453)"/>
</g>
<g clip-path="url(#clip0_1806_3453)">
<g opacity="0.35">
<path fill-rule="evenodd" clip-rule="evenodd" d="M839.52 328.022C838.428 328.022 837.542 328.908 837.542 330C837.542 331.093 838.428 331.98 839.52 331.98C840.613 331.98 841.5 331.093 841.5 330C841.5 328.908 840.613 328.022 839.52 328.022Z" fill="white"/>
<path fill-rule="evenodd" clip-rule="evenodd" d="M816.76 328.022C815.666 328.022 814.781 328.908 814.781 330C814.781 331.093 815.666 331.98 816.76 331.98C817.855 331.98 818.74 331.093 818.74 330C818.74 328.908 817.855 328.022 816.76 328.022Z" fill="white"/>
<path fill-rule="evenodd" clip-rule="evenodd" d="M795.98 328.022C794.887 328.022 794 328.908 794 330C794 331.093 794.887 331.98 795.98 331.98C797.072 331.98 797.958 331.093 797.958 330C797.958 328.908 797.072 328.022 795.98 328.022Z" fill="white"/>
<path fill-rule="evenodd" clip-rule="evenodd" d="M774.209 328.022C773.116 328.022 772.229 328.908 772.229 330C772.229 331.093 773.116 331.98 774.209 331.98C775.301 331.98 776.187 331.093 776.187 330C776.187 328.908 775.301 328.022 774.209 328.022Z" fill="white"/>
<path fill-rule="evenodd" clip-rule="evenodd" d="M752.437 328.022C751.345 328.022 750.458 328.908 750.458 330C750.458 331.093 751.345 331.98 752.437 331.98C753.53 331.98 754.417 331.093 754.417 330C754.417 328.908 753.53 328.022 752.437 328.022Z" fill="white"/>
<path fill-rule="evenodd" clip-rule="evenodd" d="M730.666 328.022C729.572 328.022 728.688 328.908 728.688 330C728.688 331.093 729.572 331.98 730.666 331.98C731.759 331.98 732.646 331.093 732.646 330C732.646 328.908 731.759 328.022 730.666 328.022Z" fill="white"/>
<path fill-rule="evenodd" clip-rule="evenodd" d="M709.887 328.022C708.793 328.022 707.906 328.908 707.906 330C707.906 331.093 708.793 331.98 709.887 331.98C710.98 331.98 711.865 331.093 711.865 330C711.865 328.908 710.98 328.022 709.887 328.022Z" fill="white"/>
<path fill-rule="evenodd" clip-rule="evenodd" d="M687.126 328.022C686.033 328.022 685.146 328.908 685.146 330C685.146 331.093 686.033 331.98 687.126 331.98C688.218 331.98 689.104 331.093 689.104 330C689.104 328.908 688.218 328.022 687.126 328.022Z" fill="white"/>
<path fill-rule="evenodd" clip-rule="evenodd" d="M666.343 328.022C665.251 328.022 664.365 328.908 664.365 330C664.365 331.093 665.251 331.98 666.343 331.98C667.436 331.98 668.323 331.093 668.323 330C668.323 328.908 667.436 328.022 666.343 328.022Z" fill="white"/>
<path fill-rule="evenodd" clip-rule="evenodd" d="M644.572 328.022C643.48 328.022 642.594 328.908 642.594 330C642.594 331.093 643.48 331.98 644.572 331.98C645.665 331.98 646.552 331.093 646.552 330C646.552 328.908 645.665 328.022 644.572 328.022Z" fill="white"/>
<path fill-rule="evenodd" clip-rule="evenodd" d="M839.52 306.251C838.428 306.251 837.542 307.136 837.542 308.23C837.542 309.325 838.428 310.209 839.52 310.209C840.613 310.209 841.5 309.325 841.5 308.23C841.5 307.136 840.613 306.251 839.52 306.251Z" fill="white"/>
<path fill-rule="evenodd" clip-rule="evenodd" d="M816.76 306.251C815.666 306.251 814.781 307.136 814.781 308.23C814.781 309.325 815.666 310.209 816.76 310.209C817.855 310.209 818.74 309.325 818.74 308.23C818.74 307.136 817.855 306.251 816.76 306.251Z" fill="white"/>
<path fill-rule="evenodd" clip-rule="evenodd" d="M795.98 306.251C794.887 306.251 794 307.136 794 308.23C794 309.325 794.887 310.209 795.98 310.209C797.072 310.209 797.958 309.325 797.958 308.23C797.958 307.136 797.072 306.251 795.98 306.251Z" fill="white"/>
<path fill-rule="evenodd" clip-rule="evenodd" d="M774.209 306.251C773.116 306.251 772.229 307.136 772.229 308.23C772.229 309.325 773.116 310.209 774.209 310.209C775.301 310.209 776.187 309.325 776.187 308.23C776.187 307.136 775.301 306.251 774.209 306.251Z" fill="white"/>
<path fill-rule="evenodd" clip-rule="evenodd" d="M752.437 306.251C751.345 306.251 750.458 307.136 750.458 308.23C750.458 309.325 751.345 310.209 752.437 310.209C753.53 310.209 754.417 309.325 754.417 308.23C754.417 307.136 753.53 306.251 752.437 306.251Z" fill="white"/>
<path fill-rule="evenodd" clip-rule="evenodd" d="M730.666 306.251C729.572 306.251 728.688 307.136 728.688 308.23C728.688 309.325 729.572 310.209 730.666 310.209C731.759 310.209 732.646 309.325 732.646 308.23C732.646 307.136 731.759 306.251 730.666 306.251Z" fill="white"/>
<path fill-rule="evenodd" clip-rule="evenodd" d="M709.887 306.251C708.793 306.251 707.906 307.136 707.906 308.23C707.906 309.325 708.793 310.209 709.887 310.209C710.98 310.209 711.865 309.325 711.865 308.23C711.865 307.136 710.98 306.251 709.887 306.251Z" fill="white"/>
<path fill-rule="evenodd" clip-rule="evenodd" d="M687.126 306.251C686.033 306.251 685.146 307.136 685.146 308.23C685.146 309.325 686.033 310.209 687.126 310.209C688.218 310.209 689.104 309.325 689.104 308.23C689.104 307.136 688.218 306.251 687.126 306.251Z" fill="white"/>
<path fill-rule="evenodd" clip-rule="evenodd" d="M666.343 306.251C665.251 306.251 664.365 307.136 664.365 308.23C664.365 309.325 665.251 310.209 666.343 310.209C667.436 310.209 668.323 309.325 668.323 308.23C668.323 307.136 667.436 306.251 666.343 306.251Z" fill="white"/>
<path fill-rule="evenodd" clip-rule="evenodd" d="M644.572 306.251C643.48 306.251 642.594 307.136 642.594 308.23C642.594 309.325 643.48 310.209 644.572 310.209C645.665 310.209 646.552 309.325 646.552 308.23C646.552 307.136 645.665 306.251 644.572 306.251Z" fill="white"/>
<path fill-rule="evenodd" clip-rule="evenodd" d="M839.52 285.47C838.428 285.47 837.542 286.356 837.542 287.45C837.542 288.541 838.428 289.428 839.52 289.428C840.613 289.428 841.5 288.541 841.5 287.45C841.5 286.356 840.613 285.47 839.52 285.47Z" fill="white"/>
<path fill-rule="evenodd" clip-rule="evenodd" d="M816.76 285.47C815.666 285.47 814.781 286.356 814.781 287.45C814.781 288.541 815.666 289.428 816.76 289.428C817.855 289.428 818.74 288.541 818.74 287.45C818.74 286.356 817.855 285.47 816.76 285.47Z" fill="white"/>
<path fill-rule="evenodd" clip-rule="evenodd" d="M795.98 285.47C794.887 285.47 794 286.356 794 287.45C794 288.541 794.887 289.428 795.98 289.428C797.072 289.428 797.958 288.541 797.958 287.45C797.958 286.356 797.072 285.47 795.98 285.47Z" fill="white"/>
<path fill-rule="evenodd" clip-rule="evenodd" d="M774.209 285.47C773.116 285.47 772.229 286.356 772.229 287.45C772.229 288.541 773.116 289.428 774.209 289.428C775.301 289.428 776.187 288.541 776.187 287.45C776.187 286.356 775.301 285.47 774.209 285.47Z" fill="white"/>
<path fill-rule="evenodd" clip-rule="evenodd" d="M752.437 285.47C751.345 285.47 750.458 286.356 750.458 287.45C750.458 288.541 751.345 289.428 752.437 289.428C753.53 289.428 754.417 288.541 754.417 287.45C754.417 286.356 753.53 285.47 752.437 285.47Z" fill="white"/>
<path fill-rule="evenodd" clip-rule="evenodd" d="M730.666 285.47C729.572 285.47 728.688 286.356 728.688 287.45C728.688 288.541 729.572 289.428 730.666 289.428C731.759 289.428 732.646 288.541 732.646 287.45C732.646 286.356 731.759 285.47 730.666 285.47Z" fill="white"/>
<path fill-rule="evenodd" clip-rule="evenodd" d="M709.887 285.47C708.793 285.47 707.906 286.356 707.906 287.45C707.906 288.541 708.793 289.428 709.887 289.428C710.98 289.428 711.865 288.541 711.865 287.45C711.865 286.356 710.98 285.47 709.887 285.47Z" fill="white"/>
<path fill-rule="evenodd" clip-rule="evenodd" d="M687.126 285.47C686.033 285.47 685.146 286.356 685.146 287.45C685.146 288.541 686.033 289.428 687.126 289.428C688.218 289.428 689.104 288.541 689.104 287.45C689.104 286.356 688.218 285.47 687.126 285.47Z" fill="white"/>
<path fill-rule="evenodd" clip-rule="evenodd" d="M666.343 285.47C665.251 285.47 664.365 286.356 664.365 287.45C664.365 288.541 665.251 289.428 666.343 289.428C667.436 289.428 668.323 288.541 668.323 287.45C668.323 286.356 667.436 285.47 666.343 285.47Z" fill="white"/>
<path fill-rule="evenodd" clip-rule="evenodd" d="M644.572 285.47C643.48 285.47 642.594 286.356 642.594 287.45C642.594 288.541 643.48 289.428 644.572 289.428C645.665 289.428 646.552 288.541 646.552 287.45C646.552 286.356 645.665 285.47 644.572 285.47Z" fill="white"/>
<path fill-rule="evenodd" clip-rule="evenodd" d="M839.52 262.709C838.428 262.709 837.542 263.596 837.542 264.689C837.542 265.781 838.428 266.667 839.52 266.667C840.613 266.667 841.5 265.781 841.5 264.689C841.5 263.596 840.613 262.709 839.52 262.709Z" fill="white"/>
<path fill-rule="evenodd" clip-rule="evenodd" d="M816.76 262.709C815.666 262.709 814.781 263.596 814.781 264.689C814.781 265.781 815.666 266.667 816.76 266.667C817.855 266.667 818.74 265.781 818.74 264.689C818.74 263.596 817.855 262.709 816.76 262.709Z" fill="white"/>
<path fill-rule="evenodd" clip-rule="evenodd" d="M795.98 262.709C794.887 262.709 794 263.596 794 264.689C794 265.781 794.887 266.667 795.98 266.667C797.072 266.667 797.958 265.781 797.958 264.689C797.958 263.596 797.072 262.709 795.98 262.709Z" fill="white"/>
<path fill-rule="evenodd" clip-rule="evenodd" d="M774.209 262.709C773.116 262.709 772.229 263.596 772.229 264.689C772.229 265.781 773.116 266.667 774.209 266.667C775.301 266.667 776.187 265.781 776.187 264.689C776.187 263.596 775.301 262.709 774.209 262.709Z" fill="white"/>
<path fill-rule="evenodd" clip-rule="evenodd" d="M752.437 262.709C751.345 262.709 750.458 263.596 750.458 264.689C750.458 265.781 751.345 266.667 752.437 266.667C753.53 266.667 754.417 265.781 754.417 264.689C754.417 263.596 753.53 262.709 752.437 262.709Z" fill="white"/>
<path fill-rule="evenodd" clip-rule="evenodd" d="M730.666 262.709C729.572 262.709 728.688 263.596 728.688 264.689C728.688 265.781 729.572 266.667 730.666 266.667C731.759 266.667 732.646 265.781 732.646 264.689C732.646 263.596 731.759 262.709 730.666 262.709Z" fill="white"/>
<path fill-rule="evenodd" clip-rule="evenodd" d="M709.887 262.709C708.793 262.709 707.906 263.596 707.906 264.689C707.906 265.781 708.793 266.667 709.887 266.667C710.98 266.667 711.865 265.781 711.865 264.689C711.865 263.596 710.98 262.709 709.887 262.709Z" fill="white"/>
<path fill-rule="evenodd" clip-rule="evenodd" d="M687.126 262.709C686.033 262.709 685.146 263.596 685.146 264.689C685.146 265.781 686.033 266.667 687.126 266.667C688.218 266.667 689.104 265.781 689.104 264.689C689.104 263.596 688.218 262.709 687.126 262.709Z" fill="white"/>
<path fill-rule="evenodd" clip-rule="evenodd" d="M666.343 262.709C665.251 262.709 664.365 263.596 664.365 264.689C664.365 265.781 665.251 266.667 666.343 266.667C667.436 266.667 668.323 265.781 668.323 264.689C668.323 263.596 667.436 262.709 666.343 262.709Z" fill="white"/>
<path fill-rule="evenodd" clip-rule="evenodd" d="M644.572 262.709C643.48 262.709 642.594 263.596 642.594 264.689C642.594 265.781 643.48 266.667 644.572 266.667C645.665 266.667 646.552 265.781 646.552 264.689C646.552 263.596 645.665 262.709 644.572 262.709Z" fill="white"/>
<path fill-rule="evenodd" clip-rule="evenodd" d="M839.52 241.928C838.428 241.928 837.542 242.814 837.542 243.906C837.542 244.999 838.428 245.886 839.52 245.886C840.613 245.886 841.5 244.999 841.5 243.906C841.5 242.814 840.613 241.928 839.52 241.928Z" fill="white"/>
<path fill-rule="evenodd" clip-rule="evenodd" d="M816.76 241.928C815.666 241.928 814.781 242.814 814.781 243.906C814.781 244.999 815.666 245.886 816.76 245.886C817.855 245.886 818.74 244.999 818.74 243.906C818.74 242.814 817.855 241.928 816.76 241.928Z" fill="white"/>
<path fill-rule="evenodd" clip-rule="evenodd" d="M795.98 241.928C794.887 241.928 794 242.814 794 243.906C794 244.999 794.887 245.886 795.98 245.886C797.072 245.886 797.958 244.999 797.958 243.906C797.958 242.814 797.072 241.928 795.98 241.928Z" fill="white"/>
<path fill-rule="evenodd" clip-rule="evenodd" d="M774.209 241.928C773.116 241.928 772.229 242.814 772.229 243.906C772.229 244.999 773.116 245.886 774.209 245.886C775.301 245.886 776.187 244.999 776.187 243.906C776.187 242.814 775.301 241.928 774.209 241.928Z" fill="white"/>
<path fill-rule="evenodd" clip-rule="evenodd" d="M752.437 241.928C751.345 241.928 750.458 242.814 750.458 243.906C750.458 244.999 751.345 245.886 752.437 245.886C753.53 245.886 754.417 244.999 754.417 243.906C754.417 242.814 753.53 241.928 752.437 241.928Z" fill="white"/>
<path fill-rule="evenodd" clip-rule="evenodd" d="M730.666 241.928C729.572 241.928 728.688 242.814 728.688 243.906C728.688 244.999 729.572 245.886 730.666 245.886C731.759 245.886 732.646 244.999 732.646 243.906C732.646 242.814 731.759 241.928 730.666 241.928Z" fill="white"/>
<path fill-rule="evenodd" clip-rule="evenodd" d="M709.887 241.928C708.793 241.928 707.906 242.814 707.906 243.906C707.906 244.999 708.793 245.886 709.887 245.886C710.98 245.886 711.865 244.999 711.865 243.906C711.865 242.814 710.98 241.928 709.887 241.928Z" fill="white"/>
<path fill-rule="evenodd" clip-rule="evenodd" d="M687.126 241.928C686.033 241.928 685.146 242.814 685.146 243.906C685.146 244.999 686.033 245.886 687.126 245.886C688.218 245.886 689.104 244.999 689.104 243.906C689.104 242.814 688.218 241.928 687.126 241.928Z" fill="white"/>
<path fill-rule="evenodd" clip-rule="evenodd" d="M666.343 241.928C665.251 241.928 664.365 242.814 664.365 243.906C664.365 244.999 665.251 245.886 666.343 245.886C667.436 245.886 668.323 244.999 668.323 243.906C668.323 242.814 667.436 241.928 666.343 241.928Z" fill="white"/>
<path fill-rule="evenodd" clip-rule="evenodd" d="M644.572 241.928C643.48 241.928 642.594 242.814 642.594 243.906C642.594 244.999 643.48 245.886 644.572 245.886C645.665 245.886 646.552 244.999 646.552 243.906C646.552 242.814 645.665 241.928 644.572 241.928Z" fill="white"/>
<path fill-rule="evenodd" clip-rule="evenodd" d="M839.52 221.146C838.428 221.146 837.542 222.031 837.542 223.126C837.542 224.22 838.428 225.105 839.52 225.105C840.613 225.105 841.5 224.22 841.5 223.126C841.5 222.031 840.613 221.146 839.52 221.146Z" fill="white"/>
<path fill-rule="evenodd" clip-rule="evenodd" d="M816.76 221.146C815.666 221.146 814.781 222.031 814.781 223.126C814.781 224.22 815.666 225.105 816.76 225.105C817.855 225.105 818.74 224.22 818.74 223.126C818.74 222.031 817.855 221.146 816.76 221.146Z" fill="white"/>
<path fill-rule="evenodd" clip-rule="evenodd" d="M795.98 221.146C794.887 221.146 794 222.031 794 223.126C794 224.22 794.887 225.105 795.98 225.105C797.072 225.105 797.958 224.22 797.958 223.126C797.958 222.031 797.072 221.146 795.98 221.146Z" fill="white"/>
<path fill-rule="evenodd" clip-rule="evenodd" d="M774.209 221.146C773.116 221.146 772.229 222.031 772.229 223.126C772.229 224.22 773.116 225.105 774.209 225.105C775.301 225.105 776.187 224.22 776.187 223.126C776.187 222.031 775.301 221.146 774.209 221.146Z" fill="white"/>
<path fill-rule="evenodd" clip-rule="evenodd" d="M752.437 221.146C751.345 221.146 750.458 222.031 750.458 223.126C750.458 224.22 751.345 225.105 752.437 225.105C753.53 225.105 754.417 224.22 754.417 223.126C754.417 222.031 753.53 221.146 752.437 221.146Z" fill="white"/>
<path fill-rule="evenodd" clip-rule="evenodd" d="M730.666 221.146C729.572 221.146 728.688 222.031 728.688 223.126C728.688 224.22 729.572 225.105 730.666 225.105C731.759 225.105 732.646 224.22 732.646 223.126C732.646 222.031 731.759 221.146 730.666 221.146Z" fill="white"/>
<path fill-rule="evenodd" clip-rule="evenodd" d="M709.887 221.146C708.793 221.146 707.906 222.031 707.906 223.126C707.906 224.22 708.793 225.105 709.887 225.105C710.98 225.105 711.865 224.22 711.865 223.126C711.865 222.031 710.98 221.146 709.887 221.146Z" fill="white"/>
<path fill-rule="evenodd" clip-rule="evenodd" d="M687.126 221.146C686.033 221.146 685.146 222.031 685.146 223.126C685.146 224.22 686.033 225.105 687.126 225.105C688.218 225.105 689.104 224.22 689.104 223.126C689.104 222.031 688.218 221.146 687.126 221.146Z" fill="white"/>
<path fill-rule="evenodd" clip-rule="evenodd" d="M666.343 221.146C665.251 221.146 664.365 222.031 664.365 223.126C664.365 224.22 665.251 225.105 666.343 225.105C667.436 225.105 668.323 224.22 668.323 223.126C668.323 222.031 667.436 221.146 666.343 221.146Z" fill="white"/>
<path fill-rule="evenodd" clip-rule="evenodd" d="M644.572 221.146C643.48 221.146 642.594 222.031 642.594 223.126C642.594 224.22 643.48 225.105 644.572 225.105C645.665 225.105 646.552 224.22 646.552 223.126C646.552 222.031 645.665 221.146 644.572 221.146Z" fill="white"/>
<path fill-rule="evenodd" clip-rule="evenodd" d="M839.52 198.386C838.428 198.386 837.542 199.273 837.542 200.366C837.542 201.458 838.428 202.344 839.52 202.344C840.613 202.344 841.5 201.458 841.5 200.366C841.5 199.273 840.613 198.386 839.52 198.386Z" fill="white"/>
<path fill-rule="evenodd" clip-rule="evenodd" d="M816.76 198.386C815.666 198.386 814.781 199.273 814.781 200.366C814.781 201.458 815.666 202.344 816.76 202.344C817.855 202.344 818.74 201.458 818.74 200.366C818.74 199.273 817.855 198.386 816.76 198.386Z" fill="white"/>
<path fill-rule="evenodd" clip-rule="evenodd" d="M795.98 198.386C794.887 198.386 794 199.273 794 200.366C794 201.458 794.887 202.344 795.98 202.344C797.072 202.344 797.958 201.458 797.958 200.366C797.958 199.273 797.072 198.386 795.98 198.386Z" fill="white"/>
<path fill-rule="evenodd" clip-rule="evenodd" d="M774.209 198.386C773.116 198.386 772.229 199.273 772.229 200.366C772.229 201.458 773.116 202.344 774.209 202.344C775.301 202.344 776.187 201.458 776.187 200.366C776.187 199.273 775.301 198.386 774.209 198.386Z" fill="white"/>
<path fill-rule="evenodd" clip-rule="evenodd" d="M752.437 198.386C751.345 198.386 750.458 199.273 750.458 200.366C750.458 201.458 751.345 202.344 752.437 202.344C753.53 202.344 754.417 201.458 754.417 200.366C754.417 199.273 753.53 198.386 752.437 198.386Z" fill="white"/>
<path fill-rule="evenodd" clip-rule="evenodd" d="M730.666 198.386C729.572 198.386 728.688 199.273 728.688 200.366C728.688 201.458 729.572 202.344 730.666 202.344C731.759 202.344 732.646 201.458 732.646 200.366C732.646 199.273 731.759 198.386 730.666 198.386Z" fill="white"/>
<path fill-rule="evenodd" clip-rule="evenodd" d="M709.887 198.386C708.793 198.386 707.906 199.273 707.906 200.366C707.906 201.458 708.793 202.344 709.887 202.344C710.98 202.344 711.865 201.458 711.865 200.366C711.865 199.273 710.98 198.386 709.887 198.386Z" fill="white"/>
<path fill-rule="evenodd" clip-rule="evenodd" d="M687.126 198.386C686.033 198.386 685.146 199.273 685.146 200.366C685.146 201.458 686.033 202.344 687.126 202.344C688.218 202.344 689.104 201.458 689.104 200.366C689.104 199.273 688.218 198.386 687.126 198.386Z" fill="white"/>
<path fill-rule="evenodd" clip-rule="evenodd" d="M666.343 198.386C665.251 198.386 664.365 199.273 664.365 200.366C664.365 201.458 665.251 202.344 666.343 202.344C667.436 202.344 668.323 201.458 668.323 200.366C668.323 199.273 667.436 198.386 666.343 198.386Z" fill="white"/>
<path fill-rule="evenodd" clip-rule="evenodd" d="M644.572 198.386C643.48 198.386 642.594 199.273 642.594 200.366C642.594 201.458 643.48 202.344 644.572 202.344C645.665 202.344 646.552 201.458 646.552 200.366C646.552 199.273 645.665 198.386 644.572 198.386Z" fill="white"/>
<path fill-rule="evenodd" clip-rule="evenodd" d="M839.52 176.615C838.428 176.615 837.542 177.502 837.542 178.595C837.542 179.687 838.428 180.573 839.52 180.573C840.613 180.573 841.5 179.687 841.5 178.595C841.5 177.502 840.613 176.615 839.52 176.615Z" fill="white"/>
<path fill-rule="evenodd" clip-rule="evenodd" d="M816.76 176.615C815.666 176.615 814.781 177.502 814.781 178.595C814.781 179.687 815.666 180.573 816.76 180.573C817.855 180.573 818.74 179.687 818.74 178.595C818.74 177.502 817.855 176.615 816.76 176.615Z" fill="white"/>
<path fill-rule="evenodd" clip-rule="evenodd" d="M795.98 176.615C794.887 176.615 794 177.502 794 178.595C794 179.687 794.887 180.573 795.98 180.573C797.072 180.573 797.958 179.687 797.958 178.595C797.958 177.502 797.072 176.615 795.98 176.615Z" fill="white"/>
<path fill-rule="evenodd" clip-rule="evenodd" d="M774.209 176.615C773.116 176.615 772.229 177.502 772.229 178.595C772.229 179.687 773.116 180.573 774.209 180.573C775.301 180.573 776.187 179.687 776.187 178.595C776.187 177.502 775.301 176.615 774.209 176.615Z" fill="white"/>
<path fill-rule="evenodd" clip-rule="evenodd" d="M752.437 176.615C751.345 176.615 750.458 177.502 750.458 178.595C750.458 179.687 751.345 180.573 752.437 180.573C753.53 180.573 754.417 179.687 754.417 178.595C754.417 177.502 753.53 176.615 752.437 176.615Z" fill="white"/>
<path fill-rule="evenodd" clip-rule="evenodd" d="M730.666 176.615C729.572 176.615 728.688 177.502 728.688 178.595C728.688 179.687 729.572 180.573 730.666 180.573C731.759 180.573 732.646 179.687 732.646 178.595C732.646 177.502 731.759 176.615 730.666 176.615Z" fill="white"/>
<path fill-rule="evenodd" clip-rule="evenodd" d="M709.887 176.615C708.793 176.615 707.906 177.502 707.906 178.595C707.906 179.687 708.793 180.573 709.887 180.573C710.98 180.573 711.865 179.687 711.865 178.595C711.865 177.502 710.98 176.615 709.887 176.615Z" fill="white"/>
<path fill-rule="evenodd" clip-rule="evenodd" d="M687.126 176.615C686.033 176.615 685.146 177.502 685.146 178.595C685.146 179.687 686.033 180.573 687.126 180.573C688.218 180.573 689.104 179.687 689.104 178.595C689.104 177.502 688.218 176.615 687.126 176.615Z" fill="white"/>
<path fill-rule="evenodd" clip-rule="evenodd" d="M666.343 176.615C665.251 176.615 664.365 177.502 664.365 178.595C664.365 179.687 665.251 180.573 666.343 180.573C667.436 180.573 668.323 179.687 668.323 178.595C668.323 177.502 667.436 176.615 666.343 176.615Z" fill="white"/>
<path fill-rule="evenodd" clip-rule="evenodd" d="M644.572 176.615C643.48 176.615 642.594 177.502 642.594 178.595C642.594 179.687 643.48 180.573 644.572 180.573C645.665 180.573 646.552 179.687 646.552 178.595C646.552 177.502 645.665 176.615 644.572 176.615Z" fill="white"/>
<path fill-rule="evenodd" clip-rule="evenodd" d="M839.52 155.834C838.428 155.834 837.542 156.72 837.542 157.812C837.542 158.905 838.428 159.792 839.52 159.792C840.613 159.792 841.5 158.905 841.5 157.812C841.5 156.72 840.613 155.834 839.52 155.834Z" fill="white"/>
<path fill-rule="evenodd" clip-rule="evenodd" d="M816.76 155.834C815.666 155.834 814.781 156.72 814.781 157.812C814.781 158.905 815.666 159.792 816.76 159.792C817.855 159.792 818.74 158.905 818.74 157.812C818.74 156.72 817.855 155.834 816.76 155.834Z" fill="white"/>
<path fill-rule="evenodd" clip-rule="evenodd" d="M795.98 155.834C794.887 155.834 794 156.72 794 157.812C794 158.905 794.887 159.792 795.98 159.792C797.072 159.792 797.958 158.905 797.958 157.812C797.958 156.72 797.072 155.834 795.98 155.834Z" fill="white"/>
<path fill-rule="evenodd" clip-rule="evenodd" d="M774.209 155.834C773.116 155.834 772.229 156.72 772.229 157.812C772.229 158.905 773.116 159.792 774.209 159.792C775.301 159.792 776.187 158.905 776.187 157.812C776.187 156.72 775.301 155.834 774.209 155.834Z" fill="white"/>
<path fill-rule="evenodd" clip-rule="evenodd" d="M752.437 155.834C751.345 155.834 750.458 156.72 750.458 157.812C750.458 158.905 751.345 159.792 752.437 159.792C753.53 159.792 754.417 158.905 754.417 157.812C754.417 156.72 753.53 155.834 752.437 155.834Z" fill="white"/>
<path fill-rule="evenodd" clip-rule="evenodd" d="M730.666 155.834C729.572 155.834 728.688 156.72 728.688 157.812C728.688 158.905 729.572 159.792 730.666 159.792C731.759 159.792 732.646 158.905 732.646 157.812C732.646 156.72 731.759 155.834 730.666 155.834Z" fill="white"/>
<path fill-rule="evenodd" clip-rule="evenodd" d="M709.887 155.834C708.793 155.834 707.906 156.72 707.906 157.812C707.906 158.905 708.793 159.792 709.887 159.792C710.98 159.792 711.865 158.905 711.865 157.812C711.865 156.72 710.98 155.834 709.887 155.834Z" fill="white"/>
<path fill-rule="evenodd" clip-rule="evenodd" d="M687.126 155.834C686.033 155.834 685.146 156.72 685.146 157.812C685.146 158.905 686.033 159.792 687.126 159.792C688.218 159.792 689.104 158.905 689.104 157.812C689.104 156.72 688.218 155.834 687.126 155.834Z" fill="white"/>
<path fill-rule="evenodd" clip-rule="evenodd" d="M666.343 155.834C665.251 155.834 664.365 156.72 664.365 157.812C664.365 158.905 665.251 159.792 666.343 159.792C667.436 159.792 668.323 158.905 668.323 157.812C668.323 156.72 667.436 155.834 666.343 155.834Z" fill="white"/>
<path fill-rule="evenodd" clip-rule="evenodd" d="M644.572 155.834C643.48 155.834 642.594 156.72 642.594 157.812C642.594 158.905 643.48 159.792 644.572 159.792C645.665 159.792 646.552 158.905 646.552 157.812C646.552 156.72 645.665 155.834 644.572 155.834Z" fill="white"/>
<path fill-rule="evenodd" clip-rule="evenodd" d="M839.52 133.073C838.428 133.073 837.542 133.958 837.542 135.051C837.542 136.145 838.428 137.032 839.52 137.032C840.613 137.032 841.5 136.145 841.5 135.051C841.5 133.958 840.613 133.073 839.52 133.073Z" fill="white"/>
<path fill-rule="evenodd" clip-rule="evenodd" d="M816.76 133.073C815.666 133.073 814.781 133.958 814.781 135.051C814.781 136.145 815.666 137.032 816.76 137.032C817.855 137.032 818.74 136.145 818.74 135.051C818.74 133.958 817.855 133.073 816.76 133.073Z" fill="white"/>
<path fill-rule="evenodd" clip-rule="evenodd" d="M795.98 133.073C794.887 133.073 794 133.958 794 135.051C794 136.145 794.887 137.032 795.98 137.032C797.072 137.032 797.958 136.145 797.958 135.051C797.958 133.958 797.072 133.073 795.98 133.073Z" fill="white"/>
<path fill-rule="evenodd" clip-rule="evenodd" d="M774.209 133.073C773.116 133.073 772.229 133.958 772.229 135.051C772.229 136.145 773.116 137.032 774.209 137.032C775.301 137.032 776.187 136.145 776.187 135.051C776.187 133.958 775.301 133.073 774.209 133.073Z" fill="white"/>
<path fill-rule="evenodd" clip-rule="evenodd" d="M752.437 133.073C751.345 133.073 750.458 133.958 750.458 135.051C750.458 136.145 751.345 137.032 752.437 137.032C753.53 137.032 754.417 136.145 754.417 135.051C754.417 133.958 753.53 133.073 752.437 133.073Z" fill="white"/>
<path fill-rule="evenodd" clip-rule="evenodd" d="M730.666 133.073C729.572 133.073 728.688 133.958 728.688 135.051C728.688 136.145 729.572 137.032 730.666 137.032C731.759 137.032 732.646 136.145 732.646 135.051C732.646 133.958 731.759 133.073 730.666 133.073Z" fill="white"/>
<path fill-rule="evenodd" clip-rule="evenodd" d="M709.887 133.073C708.793 133.073 707.906 133.958 707.906 135.051C707.906 136.145 708.793 137.032 709.887 137.032C710.98 137.032 711.865 136.145 711.865 135.051C711.865 133.958 710.98 133.073 709.887 133.073Z" fill="white"/>
<path fill-rule="evenodd" clip-rule="evenodd" d="M687.126 133.073C686.033 133.073 685.146 133.958 685.146 135.051C685.146 136.145 686.033 137.032 687.126 137.032C688.218 137.032 689.104 136.145 689.104 135.051C689.104 133.958 688.218 133.073 687.126 133.073Z" fill="white"/>
<path fill-rule="evenodd" clip-rule="evenodd" d="M666.343 133.073C665.251 133.073 664.365 133.958 664.365 135.051C664.365 136.145 665.251 137.032 666.343 137.032C667.436 137.032 668.323 136.145 668.323 135.051C668.323 133.958 667.436 133.073 666.343 133.073Z" fill="white"/>
<path fill-rule="evenodd" clip-rule="evenodd" d="M644.572 133.073C643.48 133.073 642.594 133.958 642.594 135.051C642.594 136.145 643.48 137.032 644.572 137.032C645.665 137.032 646.552 136.145 646.552 135.051C646.552 133.958 645.665 133.073 644.572 133.073Z" fill="white"/>
</g>
<path fill-rule="evenodd" clip-rule="evenodd" d="M703.424 165.502C698.397 165.454 691.203 166.941 681.864 170.154C681.131 170.406 680.414 170.659 679.714 170.911C679.428 171.603 679.145 172.312 678.862 173.04C675.575 181.496 674.032 188.254 674.032 193.287C674.032 198.194 675.547 205.794 678.75 216.069C679 216.87 679.249 217.652 679.496 218.414C680.25 218.696 681.024 218.977 681.818 219.259C691.342 222.642 698.553 224.273 703.43 224.341C708.323 224.41 715.467 222.977 724.845 219.849C725.651 219.58 726.436 219.311 727.201 219.042C727.463 218.276 727.724 217.49 727.985 216.684C731.304 206.466 732.874 198.797 732.874 193.696C732.874 188.454 731.27 181.657 727.858 173.334C727.575 172.646 727.292 171.973 727.007 171.317C726.342 171.065 725.663 170.812 724.968 170.56C715.636 167.172 708.447 165.55 703.424 165.502Z" stroke="url(#paint2_linear_1806_3453)" stroke-width="10"/>
</g>
<defs>
<linearGradient id="paint0_linear_1806_3453" x1="179747" y1="40887.2" x2="81893.6" y2="40887.2" gradientUnits="userSpaceOnUse">
<stop stop-color="#0094D6"/>
<stop offset="1" stop-color="#005CAB"/>
</linearGradient>
<linearGradient id="paint1_linear_1806_3453" x1="21405.2" y1="10673.4" x2="9964.87" y2="34221.7" gradientUnits="userSpaceOnUse">
<stop stop-color="#0094D6"/>
<stop offset="1" stop-color="#005CAB"/>
</linearGradient>
<linearGradient id="paint2_linear_1806_3453" x1="3616.16" y1="-751.299" x2="3616.16" y2="6049.76" gradientUnits="userSpaceOnUse">
<stop stop-color="#00FFFF"/>
<stop offset="1" stop-color="#0094D6"/>
</linearGradient>
<clipPath id="clip0_1806_3453">
<rect width="1443" height="711" fill="white" transform="translate(-6 45)"/>
</clipPath>
</defs>
</svg>
