<svg width="16" height="17" viewBox="0 0 16 17" fill="none" xmlns="http://www.w3.org/2000/svg">
<g id="svg">
<path id="Vector" d="M15.3287 8.76545C15.3287 7.74471 15.1361 6.78619 14.7509 5.88989C14.3746 4.99508 13.8531 4.21434 13.1865 3.54767C12.5198 2.881 11.7442 2.35508 10.8598 1.96989C9.96349 1.58323 9.01016 1.38989 7.99979 1.38989C6.98942 1.38989 6.03608 1.58323 5.13979 1.96989C4.25534 2.35508 3.47979 2.881 2.81312 3.54767C2.14645 4.21434 1.62571 4.99508 1.2509 5.88989C0.864232 6.78619 0.670898 7.74471 0.670898 8.76545C0.670898 9.68248 0.827195 10.5521 1.13979 11.3743C1.45238 12.198 1.88719 12.9329 2.44423 13.5788C3.00275 14.2247 3.65682 14.7662 4.40645 15.2032C5.16645 15.6299 5.98423 15.9114 6.85979 16.0477V10.8899H4.98423V8.76545H6.85979V7.141C6.85979 6.2136 7.11238 5.50248 7.61756 5.00767C8.12275 4.51286 8.79164 4.26545 9.62423 4.26545C10.0198 4.26545 10.3924 4.28915 10.742 4.33656C11.0916 4.38249 11.2665 4.40545 11.2665 4.40545V6.23434H10.3442C9.88497 6.23434 9.56942 6.35137 9.39756 6.58545C9.22571 6.81952 9.13979 7.08249 9.13979 7.37434V8.76545H11.1709L10.8598 10.8899H9.13979V16.0477C10.0153 15.9114 10.8331 15.6299 11.5931 15.2032C12.3427 14.7662 12.9968 14.2247 13.5553 13.5788C14.1124 12.9329 14.5472 12.198 14.8598 11.3743C15.1724 10.5521 15.3287 9.68248 15.3287 8.76545Z" fill="white"/>
</g>
</svg>
