<svg width="1440" height="509" viewBox="0 0 1440 509" fill="none" xmlns="http://www.w3.org/2000/svg">
<path fill-rule="evenodd" clip-rule="evenodd" d="M-25.6664 21.9997C869.916 -10.9285 1354.45 -6.89259 1427.93 34.1074C1497.04 72.6673 1519.61 191.466 1495.65 390.502C1492.99 412.615 1473.36 429.357 1449.93 429.503C642.094 434.55 177.072 440.049 54.8629 446C-69.38 452.05 -96.2231 310.716 -25.6664 21.9997Z" fill="#005CAB"/>
<g clip-path="url(#clip0_1825_3954)">
<g clip-path="url(#clip1_1825_3954)">
<path d="M674 315C685.874 315 695.5 305.374 695.5 293.5C695.5 281.626 685.874 272 674 272C662.126 272 652.5 281.626 652.5 293.5C652.5 305.374 662.126 315 674 315Z" stroke="url(#paint0_linear_1825_3954)" stroke-width="10"/>
</g>
</g>
<g clip-path="url(#clip2_1825_3954)">
<g clip-path="url(#clip3_1825_3954)">
<g opacity="0.35">
<path fill-rule="evenodd" clip-rule="evenodd" d="M1071 340.6C1068.79 340.6 1067 342.481 1067 344.798C1067 347.118 1068.79 349 1071 349C1073.21 349 1075 347.118 1075 344.798C1075 342.481 1073.21 340.6 1071 340.6Z" fill="white"/>
<path fill-rule="evenodd" clip-rule="evenodd" d="M1042 340.6C1039.79 340.6 1038 342.481 1038 344.798C1038 347.118 1039.79 349 1042 349C1044.21 349 1046 347.118 1046 344.798C1046 342.481 1044.21 340.6 1042 340.6Z" fill="white"/>
<path fill-rule="evenodd" clip-rule="evenodd" d="M1014 340.6C1011.79 340.6 1010 342.481 1010 344.798C1010 347.118 1011.79 349 1014 349C1016.21 349 1018 347.118 1018 344.798C1018 342.481 1016.21 340.6 1014 340.6Z" fill="white"/>
<path fill-rule="evenodd" clip-rule="evenodd" d="M986.002 340.6C983.792 340.6 982 342.481 982 344.798C982 347.118 983.792 349 986.002 349C988.208 349 990 347.118 990 344.798C990 342.481 988.208 340.6 986.002 340.6Z" fill="white"/>
<path fill-rule="evenodd" clip-rule="evenodd" d="M957.998 340.6C955.792 340.6 954 342.481 954 344.798C954 347.118 955.792 349 957.998 349C960.208 349 962 347.118 962 344.798C962 342.481 960.208 340.6 957.998 340.6Z" fill="white"/>
<path fill-rule="evenodd" clip-rule="evenodd" d="M1071 311.2C1068.79 311.2 1067 313.078 1067 315.4C1067 317.722 1068.79 319.6 1071 319.6C1073.21 319.6 1075 317.722 1075 315.4C1075 313.078 1073.21 311.2 1071 311.2Z" fill="white"/>
<path fill-rule="evenodd" clip-rule="evenodd" d="M1042 311.2C1039.79 311.2 1038 313.078 1038 315.4C1038 317.722 1039.79 319.6 1042 319.6C1044.21 319.6 1046 317.722 1046 315.4C1046 313.078 1044.21 311.2 1042 311.2Z" fill="white"/>
<path fill-rule="evenodd" clip-rule="evenodd" d="M1014 311.2C1011.79 311.2 1010 313.078 1010 315.4C1010 317.722 1011.79 319.6 1014 319.6C1016.21 319.6 1018 317.722 1018 315.4C1018 313.078 1016.21 311.2 1014 311.2Z" fill="white"/>
<path fill-rule="evenodd" clip-rule="evenodd" d="M986.002 311.2C983.792 311.2 982 313.078 982 315.4C982 317.722 983.792 319.6 986.002 319.6C988.208 319.6 990 317.722 990 315.4C990 313.078 988.208 311.2 986.002 311.2Z" fill="white"/>
<path fill-rule="evenodd" clip-rule="evenodd" d="M957.998 311.2C955.792 311.2 954 313.078 954 315.4C954 317.722 955.792 319.6 957.998 319.6C960.208 319.6 962 317.722 962 315.4C962 313.078 960.208 311.2 957.998 311.2Z" fill="white"/>
<path fill-rule="evenodd" clip-rule="evenodd" d="M1071 282.85C1068.79 282.85 1067 284.731 1067 287.052C1067 289.368 1068.79 291.25 1071 291.25C1073.21 291.25 1075 289.368 1075 287.052C1075 284.731 1073.21 282.85 1071 282.85Z" fill="white"/>
<path fill-rule="evenodd" clip-rule="evenodd" d="M1042 282.85C1039.79 282.85 1038 284.731 1038 287.052C1038 289.368 1039.79 291.25 1042 291.25C1044.21 291.25 1046 289.368 1046 287.052C1046 284.731 1044.21 282.85 1042 282.85Z" fill="white"/>
<path fill-rule="evenodd" clip-rule="evenodd" d="M1014 282.85C1011.79 282.85 1010 284.731 1010 287.052C1010 289.368 1011.79 291.25 1014 291.25C1016.21 291.25 1018 289.368 1018 287.052C1018 284.731 1016.21 282.85 1014 282.85Z" fill="white"/>
<path fill-rule="evenodd" clip-rule="evenodd" d="M986.002 282.85C983.792 282.85 982 284.731 982 287.052C982 289.368 983.792 291.25 986.002 291.25C988.208 291.25 990 289.368 990 287.052C990 284.731 988.208 282.85 986.002 282.85Z" fill="white"/>
<path fill-rule="evenodd" clip-rule="evenodd" d="M957.998 282.85C955.792 282.85 954 284.731 954 287.052C954 289.368 955.792 291.25 957.998 291.25C960.208 291.25 962 289.368 962 287.052C962 284.731 960.208 282.85 957.998 282.85Z" fill="white"/>
<path fill-rule="evenodd" clip-rule="evenodd" d="M1071 251.35C1068.79 251.35 1067 253.231 1067 255.552C1067 257.868 1068.79 259.75 1071 259.75C1073.21 259.75 1075 257.868 1075 255.552C1075 253.231 1073.21 251.35 1071 251.35Z" fill="white"/>
<path fill-rule="evenodd" clip-rule="evenodd" d="M1042 251.35C1039.79 251.35 1038 253.231 1038 255.552C1038 257.868 1039.79 259.75 1042 259.75C1044.21 259.75 1046 257.868 1046 255.552C1046 253.231 1044.21 251.35 1042 251.35Z" fill="white"/>
<path fill-rule="evenodd" clip-rule="evenodd" d="M1014 251.35C1011.79 251.35 1010 253.231 1010 255.552C1010 257.868 1011.79 259.75 1014 259.75C1016.21 259.75 1018 257.868 1018 255.552C1018 253.231 1016.21 251.35 1014 251.35Z" fill="white"/>
<path fill-rule="evenodd" clip-rule="evenodd" d="M986.002 251.35C983.792 251.35 982 253.231 982 255.552C982 257.868 983.792 259.75 986.002 259.75C988.208 259.75 990 257.868 990 255.552C990 253.231 988.208 251.35 986.002 251.35Z" fill="white"/>
<path fill-rule="evenodd" clip-rule="evenodd" d="M957.998 251.35C955.792 251.35 954 253.231 954 255.552C954 257.868 955.792 259.75 957.998 259.75C960.208 259.75 962 257.868 962 255.552C962 253.231 960.208 251.35 957.998 251.35Z" fill="white"/>
<path fill-rule="evenodd" clip-rule="evenodd" d="M1071 223C1068.79 223 1067 224.881 1067 227.198C1067 229.519 1068.79 231.4 1071 231.4C1073.21 231.4 1075 229.519 1075 227.198C1075 224.881 1073.21 223 1071 223Z" fill="white"/>
<path fill-rule="evenodd" clip-rule="evenodd" d="M1042 223C1039.79 223 1038 224.881 1038 227.198C1038 229.519 1039.79 231.4 1042 231.4C1044.21 231.4 1046 229.519 1046 227.198C1046 224.881 1044.21 223 1042 223Z" fill="white"/>
<path fill-rule="evenodd" clip-rule="evenodd" d="M1014 223C1011.79 223 1010 224.881 1010 227.198C1010 229.519 1011.79 231.4 1014 231.4C1016.21 231.4 1018 229.519 1018 227.198C1018 224.881 1016.21 223 1014 223Z" fill="white"/>
<path fill-rule="evenodd" clip-rule="evenodd" d="M986.002 223C983.792 223 982 224.881 982 227.198C982 229.519 983.792 231.4 986.002 231.4C988.208 231.4 990 229.519 990 227.198C990 224.881 988.208 223 986.002 223Z" fill="white"/>
<path fill-rule="evenodd" clip-rule="evenodd" d="M957.998 223C955.792 223 954 224.881 954 227.198C954 229.519 955.792 231.4 957.998 231.4C960.208 231.4 962 229.519 962 227.198C962 224.881 960.208 223 957.998 223Z" fill="white"/>
</g>
</g>
</g>
<g clip-path="url(#clip4_1825_3954)">
<g clip-path="url(#clip5_1825_3954)">
<path d="M1083 159C1089.63 159 1095 153.627 1095 147C1095 140.373 1089.63 135 1083 135C1076.37 135 1071 140.373 1071 147C1071 153.627 1076.37 159 1083 159Z" stroke="url(#paint1_linear_1825_3954)" stroke-width="8"/>
</g>
</g>
<g clip-path="url(#clip6_1825_3954)">
<g clip-path="url(#clip7_1825_3954)">
<path fill-rule="evenodd" clip-rule="evenodd" d="M1026.71 458.483C1031.77 463.094 1035.06 467.01 1036.73 470.122C1038.4 473.217 1039.9 478.19 1041.07 485.11C1041.19 485.819 1041.3 486.51 1041.4 487.183C1041.01 487.749 1040.6 488.324 1040.17 488.91C1036.4 494.022 1032.89 497.435 1029.78 499.316C1026.78 501.133 1021.76 502.924 1014.61 504.517C1013.74 504.713 1012.89 504.892 1012.06 505.055C1011.43 504.499 1010.78 503.914 1010.12 503.299C1005.11 498.635 1001.87 494.732 1000.25 491.696C998.645 488.687 997.142 483.703 995.906 476.675C995.763 475.863 995.633 475.076 995.517 474.313C996.014 473.726 996.534 473.124 997.076 472.507C1002.01 466.898 1005.97 463.297 1008.84 461.558C1011.83 459.744 1016.38 458.239 1022.55 457.242C1023.37 457.109 1024.16 456.994 1024.93 456.897C1025.51 457.402 1026.11 457.93 1026.71 458.483Z" stroke="url(#paint2_linear_1825_3954)" stroke-width="10" stroke-linecap="round"/>
</g>
</g>
<defs>
<linearGradient id="paint0_linear_1825_3954" x1="2802.5" y1="272" x2="2802.5" y2="4572" gradientUnits="userSpaceOnUse">
<stop stop-color="#91CB0E"/>
<stop offset="1" stop-color="#FFE022"/>
</linearGradient>
<linearGradient id="paint1_linear_1825_3954" x1="2271" y1="135" x2="2271" y2="2535" gradientUnits="userSpaceOnUse">
<stop stop-color="#F49C31"/>
<stop offset="1" stop-color="#FFE022"/>
</linearGradient>
<linearGradient id="paint2_linear_1825_3954" x1="2105.57" y1="2321.39" x2="-1566.66" y2="4441.56" gradientUnits="userSpaceOnUse">
<stop stop-color="#0095D5"/>
<stop offset="1" stop-color="#005CAB"/>
</linearGradient>
<clipPath id="clip0_1825_3954">
<rect width="53" height="53" fill="white" transform="translate(647.5 267)"/>
</clipPath>
<clipPath id="clip1_1825_3954">
<rect width="53" height="53" fill="white" transform="translate(647.5 267)"/>
</clipPath>
<clipPath id="clip2_1825_3954">
<rect width="121" height="126" fill="white" transform="translate(954 223)"/>
</clipPath>
<clipPath id="clip3_1825_3954">
<rect width="121" height="126" fill="white" transform="translate(954 223)"/>
</clipPath>
<clipPath id="clip4_1825_3954">
<rect width="32" height="32" fill="white" transform="translate(1067 131)"/>
</clipPath>
<clipPath id="clip5_1825_3954">
<rect width="32" height="32" fill="white" transform="translate(1067 131)"/>
</clipPath>
<clipPath id="clip6_1825_3954">
<rect width="58" height="58" fill="white" transform="translate(989.5 451)"/>
</clipPath>
<clipPath id="clip7_1825_3954">
<rect width="58" height="60" fill="white" transform="translate(989.5 451)"/>
</clipPath>
</defs>
</svg>
