<svg width="220" height="90" viewBox="0 0 220 90" fill="none" xmlns="http://www.w3.org/2000/svg">
<g id="Brand_Design_System">
<g id="tittle">
<g id="atoms/icon/general/logo">
<path id="Shape" fill-rule="evenodd" clip-rule="evenodd" d="M75.1485 80.4233C75.4133 80.4233 75.6315 80.4332 75.8033 80.4529C75.975 80.4726 76.1128 80.5005 76.2166 80.5366C76.3203 80.5728 76.3937 80.6155 76.4366 80.6647C76.4795 80.714 76.501 80.7715 76.501 80.8371V89.6059C76.501 89.6716 76.4795 89.7291 76.4366 89.7783C76.3937 89.8276 76.3203 89.8686 76.2166 89.9015C76.1128 89.9343 75.975 89.9589 75.8033 89.9754C75.7002 89.9852 75.5804 89.9921 75.4439 89.9961L75.1485 90L74.8531 89.9961L74.6023 89.9842L74.4937 89.9754C74.3219 89.9589 74.1842 89.9343 74.0804 89.9015C73.9767 89.8686 73.9033 89.8276 73.8604 89.7783C73.8174 89.7291 73.796 89.6716 73.796 89.6059V80.8371C73.796 80.7715 73.8174 80.714 73.8604 80.6647C73.9033 80.6155 73.9767 80.5728 74.0804 80.5366C74.1842 80.5005 74.3219 80.4726 74.4937 80.4529C74.6655 80.4332 74.8837 80.4233 75.1485 80.4233ZM67.9911 77.863L68.2874 77.8669C68.4248 77.8708 68.5461 77.8777 68.6513 77.8876C68.8266 77.904 68.9644 77.9303 69.0646 77.9664C69.1647 78.0025 69.2363 78.0469 69.2792 78.0994C69.3222 78.152 69.3437 78.2111 69.3437 78.2768V80.2374H71.4261C71.4977 80.2374 71.5603 80.2538 71.614 80.2867C71.6676 80.3195 71.7124 80.3737 71.7481 80.4492C71.7839 80.5248 71.8108 80.6282 71.8286 80.7596C71.8465 80.891 71.8555 81.0519 71.8555 81.2424C71.8555 81.6036 71.8197 81.8614 71.7481 82.0158C71.6766 82.1702 71.5728 82.2473 71.4368 82.2473H69.3437V86.3755C69.3437 86.855 69.4259 87.2146 69.5905 87.4544C69.7551 87.6941 70.0485 87.814 70.4707 87.814C70.6139 87.814 70.7427 87.8025 70.8572 87.7795C70.9717 87.7565 71.0737 87.7303 71.1631 87.7007L71.3885 87.6219C71.4494 87.5989 71.5048 87.5874 71.5549 87.5874C71.5979 87.5874 71.639 87.5989 71.6784 87.6219C71.7177 87.6449 71.7481 87.6908 71.7696 87.7598C71.7911 87.8288 71.8108 87.9224 71.8286 88.0406C71.8465 88.1589 71.8555 88.3099 71.8555 88.4938C71.8555 88.7828 71.8358 89.0045 71.7964 89.1589C71.7571 89.3132 71.7052 89.4216 71.6408 89.484C71.5764 89.5464 71.4816 89.6022 71.3563 89.6515C71.2311 89.7008 71.0844 89.7435 70.9162 89.7796C70.7481 89.8157 70.5656 89.8436 70.3688 89.8633C70.172 89.883 69.9734 89.8929 69.773 89.8929C69.2363 89.8929 68.7711 89.8305 68.3776 89.7057C67.984 89.5809 67.6584 89.3888 67.4007 89.1293C67.1431 88.8699 66.9535 88.5431 66.8318 88.149C66.7102 87.7549 66.6493 87.2885 66.6493 86.7499V82.2473H65.5008C65.3648 82.2473 65.261 82.1702 65.1895 82.0158C65.1179 81.8614 65.0821 81.6036 65.0821 81.2424C65.0821 81.0519 65.0911 80.891 65.109 80.7596C65.1269 80.6282 65.1537 80.5248 65.1895 80.4492C65.2253 80.3737 65.27 80.3195 65.3236 80.2867C65.3773 80.2538 65.4399 80.2374 65.5115 80.2374H66.6493V78.2768C66.6493 78.2111 66.669 78.152 66.7084 78.0994C66.7477 78.0469 66.8193 78.0025 66.9231 77.9664C67.0268 77.9303 67.1664 77.904 67.3417 77.8876C67.517 77.8712 67.7335 77.863 67.9911 77.863ZM142.159 76.6034C142.488 76.6034 142.817 76.6264 143.147 76.6724C143.476 76.7184 143.784 76.7808 144.07 76.8596C144.356 76.9384 144.61 77.0271 144.832 77.1256C145.054 77.2241 145.2 77.3062 145.272 77.3719C145.344 77.4376 145.392 77.4934 145.417 77.5394C145.442 77.5854 145.463 77.6461 145.481 77.7217C145.499 77.7972 145.512 77.8924 145.519 78.0074L145.527 78.2008L145.53 78.436L145.526 78.6995L145.514 78.9188C145.503 79.0501 145.485 79.1585 145.46 79.2439C145.435 79.3293 145.399 79.3917 145.353 79.4311C145.306 79.4705 145.243 79.4902 145.165 79.4902C145.099 79.4902 145.001 79.4583 144.871 79.3944L144.789 79.3523C144.617 79.2603 144.406 79.1601 144.156 79.0518C143.905 78.9434 143.615 78.8449 143.286 78.7562C142.957 78.6675 142.596 78.6232 142.202 78.6232C141.894 78.6232 141.626 78.6577 141.397 78.7266C141.168 78.7956 140.977 78.8908 140.823 79.0124C140.669 79.1339 140.554 79.28 140.479 79.4508C140.404 79.6216 140.366 79.8022 140.366 79.9927C140.366 80.2751 140.451 80.5198 140.619 80.7267C140.787 80.9336 141.012 81.1175 141.295 81.2784C141.578 81.4394 141.898 81.5904 142.256 81.7317C142.614 81.8729 142.978 82.0223 143.351 82.1799C143.723 82.3376 144.088 82.5166 144.445 82.7169C144.803 82.9173 145.122 83.157 145.401 83.4361C145.68 83.7153 145.905 84.0437 146.077 84.4214C146.249 84.7991 146.335 85.2441 146.335 85.7564C146.335 86.4264 146.199 87.0143 145.927 87.52C145.655 88.0258 145.286 88.4478 144.821 88.7861C144.356 89.1243 143.812 89.3789 143.19 89.5496C142.567 89.7204 141.901 89.8058 141.193 89.8058C140.714 89.8058 140.268 89.7697 139.857 89.6974C139.445 89.6252 139.082 89.5381 138.767 89.4363C138.452 89.3345 138.189 89.2278 137.978 89.1161C137.767 89.0045 137.615 88.9059 137.522 88.8206C137.429 88.7352 137.363 88.612 137.323 88.4511C137.284 88.2902 137.264 88.0586 137.264 87.7565C137.264 87.5529 137.271 87.3821 137.286 87.2442C137.3 87.1062 137.323 86.9946 137.355 86.9092C137.388 86.8238 137.431 86.763 137.484 86.7269C137.538 86.6908 137.601 86.6727 137.672 86.6727C137.756 86.6727 137.868 86.7103 138.008 86.7856L138.096 86.8353C138.279 86.9436 138.513 87.0635 138.799 87.1949C139.085 87.3263 139.427 87.4461 139.824 87.5545C140.222 87.6629 140.681 87.7171 141.204 87.7171C141.547 87.7171 141.855 87.6793 142.127 87.6038C142.399 87.5282 142.63 87.4215 142.819 87.2836C143.009 87.1456 143.154 86.9749 143.254 86.7712C143.354 86.5676 143.404 86.341 143.404 86.0914C143.404 85.8024 143.318 85.5544 143.147 85.3475C142.975 85.1406 142.751 84.9567 142.476 84.7958C142.2 84.6349 141.887 84.4838 141.536 84.3426C141.186 84.2014 140.824 84.0519 140.452 83.8943C140.08 83.7366 139.719 83.5577 139.368 83.3573C139.018 83.157 138.704 82.9173 138.429 82.6381C138.153 82.3589 137.93 82.0289 137.758 81.6479C137.586 81.2669 137.5 80.8104 137.5 80.2784C137.5 79.6675 137.624 79.1306 137.871 78.6675C138.118 78.2045 138.45 77.8202 138.869 77.5148C139.288 77.2093 139.781 76.9811 140.35 76.83C140.919 76.679 141.522 76.6034 142.159 76.6034ZM123.431 75.8952L123.584 75.894C123.849 75.894 124.068 75.9039 124.239 75.9236C124.411 75.9433 124.547 75.9712 124.647 76.0073C124.747 76.0435 124.819 76.0878 124.862 76.1404C124.905 76.1929 124.926 76.252 124.926 76.3177V89.2442C124.926 89.3165 124.908 89.3772 124.873 89.4265C124.837 89.4758 124.776 89.5168 124.69 89.5496C124.604 89.5825 124.488 89.6055 124.341 89.6186C124.195 89.6318 124.014 89.6383 123.799 89.6383C123.57 89.6383 123.384 89.6318 123.241 89.6186C123.098 89.6055 122.982 89.5825 122.892 89.5496C122.803 89.5168 122.738 89.4758 122.699 89.4265C122.66 89.3772 122.64 89.3165 122.64 89.2442V88.2688C122.146 88.7549 121.629 89.1326 121.089 89.4019C120.548 89.6712 119.949 89.8058 119.291 89.8058C118.561 89.8058 117.944 89.6761 117.439 89.4166C116.935 89.1572 116.523 88.8074 116.205 88.3673C115.886 87.9273 115.655 87.4133 115.512 86.8254C115.369 86.2375 115.298 85.6185 115.298 84.9682C115.298 84.1866 115.389 83.4838 115.571 82.8598C115.754 82.2358 116.02 81.7038 116.371 81.2637C116.722 80.8236 117.158 80.4853 117.681 80.2489C118.203 80.0124 118.804 79.8942 119.484 79.8942C120.021 79.8942 120.507 79.9943 120.944 80.1947C121.38 80.395 121.813 80.6889 122.243 81.0765V76.3177C122.243 76.252 122.262 76.1929 122.302 76.1404C122.341 76.0878 122.413 76.0435 122.516 76.0073C122.62 75.9712 122.758 75.9433 122.93 75.9236C123.067 75.9078 123.234 75.8984 123.431 75.8952ZM93.9958 79.8942C94.2964 79.8942 94.588 79.9139 94.8706 79.9533C95.1533 79.9927 95.4091 80.0419 95.6381 80.1011C95.8671 80.1602 96.0604 80.2242 96.2178 80.2932L96.3853 80.3712C96.4583 80.4079 96.5151 80.441 96.5559 80.4705C96.6239 80.5198 96.6722 80.5691 96.7009 80.6183C96.7295 80.6676 96.7509 80.7267 96.7653 80.7957C96.7796 80.8646 96.7921 80.95 96.8028 81.0518C96.8109 81.1282 96.8159 81.2184 96.8179 81.3225L96.8189 81.4312C96.8189 81.6085 96.8136 81.753 96.8028 81.8647C96.7921 81.9763 96.7742 82.065 96.7492 82.1307C96.7241 82.1964 96.6901 82.2407 96.6472 82.2637C96.6042 82.2867 96.5541 82.2982 96.4969 82.2982C96.4454 82.2982 96.3709 82.2761 96.2736 82.232L96.1963 82.1947C96.0604 82.1258 95.8904 82.0519 95.6865 81.973C95.4825 81.8942 95.2464 81.8203 94.978 81.7514C94.7096 81.6824 94.4037 81.6479 94.0602 81.6479C93.8169 81.6479 93.6058 81.6709 93.4269 81.7169C93.248 81.7629 93.1013 81.8285 92.9868 81.9139C92.8723 81.9993 92.7864 82.0995 92.7292 82.2144C92.6719 82.3294 92.6433 82.4525 92.6433 82.5839C92.6433 82.7875 92.7113 82.9583 92.8472 83.0962C92.9832 83.2342 93.1621 83.3557 93.3839 83.4608C93.5503 83.5396 93.7338 83.6147 93.9344 83.6862L94.1407 83.7564C94.4234 83.8483 94.7096 83.9485 94.9995 84.0569C95.2893 84.1652 95.5755 84.2917 95.8582 84.4362C96.1409 84.5807 96.3931 84.758 96.615 84.9682C96.8368 85.1784 97.0157 85.4296 97.1517 85.7219C97.2877 86.0142 97.3556 86.3607 97.3556 86.7614C97.3556 87.2606 97.2537 87.7007 97.0497 88.0816C96.8458 88.4626 96.5577 88.7811 96.1856 89.0373C95.8135 89.2935 95.3734 89.4856 94.8653 89.6137C94.3572 89.7418 93.8062 89.8058 93.2122 89.8058C92.8544 89.8058 92.5127 89.7812 92.1871 89.7319C91.8615 89.6826 91.5698 89.6203 91.3122 89.5447C91.0546 89.4692 90.8399 89.392 90.6682 89.3132C90.4964 89.2344 90.3712 89.1605 90.2925 89.0915C90.2137 89.0225 90.1529 88.9142 90.11 88.7664C90.067 88.6186 90.0456 88.4002 90.0456 88.1112C90.0456 87.9207 90.0527 87.768 90.067 87.653C90.0814 87.5381 90.1028 87.4461 90.1314 87.3772C90.1601 87.3082 90.1958 87.2622 90.2388 87.2392C90.2817 87.2162 90.3354 87.2047 90.3998 87.2047C90.4628 87.2047 90.5498 87.231 90.6609 87.2836L90.7487 87.3279C90.9025 87.41 91.094 87.5003 91.323 87.5988C91.552 87.6974 91.8185 87.7893 92.1227 87.8747C92.4268 87.9601 92.7721 88.0028 93.1585 88.0028C93.4018 88.0028 93.6183 87.9798 93.808 87.9338C93.9976 87.8878 94.1622 87.8222 94.3017 87.7368C94.4413 87.6514 94.5468 87.543 94.6184 87.4116C94.69 87.2803 94.7257 87.1292 94.7257 86.9584C94.7257 86.7614 94.6595 86.5922 94.5271 86.451C94.3948 86.3098 94.2194 86.1866 94.0012 86.0816C93.8375 86.0027 93.6577 85.9276 93.4618 85.8562L93.2605 85.786C92.985 85.694 92.7023 85.5922 92.4125 85.4805C92.1227 85.3689 91.84 85.2408 91.5645 85.0963C91.289 84.9518 91.0421 84.7745 90.8238 84.5643C90.6055 84.3541 90.4302 84.1012 90.2978 83.8056C90.1654 83.51 90.0992 83.1553 90.0992 82.7415C90.0992 82.3212 90.1887 81.9353 90.3676 81.5839C90.5465 81.2325 90.8041 80.932 91.1405 80.6824C91.4768 80.4328 91.8865 80.239 92.3696 80.1011C92.8526 79.9631 93.3947 79.8942 93.9958 79.8942ZM157.537 79.8942C157.838 79.8942 158.13 79.9139 158.412 79.9533C158.695 79.9927 158.951 80.0419 159.18 80.1011C159.409 80.1602 159.602 80.2242 159.759 80.2932C159.917 80.3622 160.03 80.4213 160.098 80.4705C160.166 80.5198 160.214 80.5691 160.243 80.6183C160.271 80.6676 160.293 80.7267 160.307 80.7957C160.321 80.8646 160.334 80.95 160.344 81.0518C160.353 81.1282 160.358 81.2184 160.36 81.3225L160.361 81.4312C160.361 81.6085 160.355 81.753 160.344 81.8647C160.334 81.9763 160.316 82.065 160.291 82.1307C160.266 82.1964 160.232 82.2407 160.189 82.2637C160.146 82.2867 160.096 82.2982 160.039 82.2982C159.987 82.2982 159.913 82.2761 159.815 82.232L159.738 82.1947C159.602 82.1258 159.432 82.0519 159.228 81.973C159.024 81.8942 158.788 81.8203 158.52 81.7514C158.251 81.6824 157.945 81.6479 157.602 81.6479C157.359 81.6479 157.147 81.6709 156.969 81.7169C156.79 81.7629 156.643 81.8285 156.528 81.9139C156.414 81.9993 156.328 82.0995 156.271 82.2144C156.214 82.3294 156.185 82.4525 156.185 82.5839C156.185 82.7875 156.253 82.9583 156.389 83.0962C156.525 83.2342 156.704 83.3557 156.926 83.4608C157.147 83.5659 157.4 83.6644 157.682 83.7564C157.965 83.8483 158.251 83.9485 158.541 84.0569C158.831 84.1652 159.117 84.2917 159.4 84.4362C159.683 84.5807 159.935 84.758 160.157 84.9682C160.378 85.1784 160.557 85.4296 160.693 85.7219C160.829 86.0142 160.897 86.3607 160.897 86.7614C160.897 87.2606 160.795 87.7007 160.591 88.0816C160.387 88.4626 160.099 88.7811 159.727 89.0373C159.355 89.2935 158.915 89.4856 158.407 89.6137C157.899 89.7418 157.348 89.8058 156.754 89.8058C156.396 89.8058 156.054 89.7812 155.729 89.7319C155.403 89.6826 155.112 89.6203 154.854 89.5447C154.596 89.4692 154.382 89.392 154.21 89.3132C154.038 89.2344 153.913 89.1605 153.834 89.0915C153.755 89.0225 153.695 88.9142 153.652 88.7664C153.609 88.6186 153.587 88.4002 153.587 88.1112C153.587 87.9207 153.594 87.768 153.609 87.653C153.623 87.5381 153.645 87.4461 153.673 87.3772C153.702 87.3082 153.738 87.2622 153.78 87.2392C153.823 87.2162 153.877 87.2047 153.941 87.2047C154.004 87.2047 154.091 87.231 154.203 87.2836L154.29 87.3279C154.444 87.41 154.636 87.5003 154.865 87.5988C155.094 87.6974 155.36 87.7893 155.664 87.8747C155.968 87.9601 156.314 88.0028 156.7 88.0028C156.944 88.0028 157.16 87.9798 157.35 87.9338C157.539 87.8878 157.704 87.8222 157.843 87.7368C157.983 87.6514 158.089 87.543 158.16 87.4116C158.232 87.2803 158.267 87.1292 158.267 86.9584C158.267 86.7614 158.201 86.5922 158.069 86.451C157.936 86.3098 157.761 86.1866 157.543 86.0816C157.379 86.0027 157.199 85.9276 157.003 85.8562L156.802 85.786C156.527 85.694 156.244 85.5922 155.954 85.4805C155.664 85.3689 155.382 85.2408 155.106 85.0963C154.831 84.9518 154.584 84.7745 154.365 84.5643C154.147 84.3541 153.972 84.1012 153.84 83.8056C153.707 83.51 153.641 83.1553 153.641 82.7415C153.641 82.3212 153.73 81.9353 153.909 81.5839C154.088 81.2325 154.346 80.932 154.682 80.6824C155.019 80.4328 155.428 80.239 155.911 80.1011C156.394 79.9631 156.936 79.8942 157.537 79.8942ZM207.064 75.8952L207.217 75.894C207.482 75.894 207.7 75.9039 207.872 75.9236C208.043 75.9433 208.179 75.9712 208.28 76.0073C208.38 76.0435 208.451 76.0878 208.494 76.1404C208.537 76.1929 208.559 76.252 208.559 76.3177V89.2442C208.559 89.3165 208.541 89.3772 208.505 89.4265C208.469 89.4758 208.408 89.5168 208.323 89.5496C208.237 89.5825 208.12 89.6055 207.974 89.6186C207.827 89.6318 207.646 89.6383 207.432 89.6383C207.203 89.6383 207.017 89.6318 206.873 89.6186C206.73 89.6055 206.614 89.5825 206.525 89.5496C206.435 89.5168 206.371 89.4758 206.331 89.4265C206.292 89.3772 206.272 89.3165 206.272 89.2442V88.2688C205.779 88.7549 205.262 89.1326 204.721 89.4019C204.181 89.6712 203.582 89.8058 202.923 89.8058C202.193 89.8058 201.576 89.6761 201.072 89.4166C200.567 89.1572 200.156 88.8074 199.837 88.3673C199.519 87.9273 199.288 87.4133 199.145 86.8254C199.002 86.2375 198.93 85.6185 198.93 84.9682C198.93 84.1866 199.021 83.4838 199.204 82.8598C199.386 82.2358 199.653 81.7038 200.003 81.2637C200.354 80.8236 200.791 80.4853 201.313 80.2489C201.835 80.0124 202.437 79.8942 203.116 79.8942C203.653 79.8942 204.14 79.9943 204.576 80.1947C205.013 80.395 205.446 80.6889 205.875 81.0765V76.3177C205.875 76.252 205.895 76.1929 205.934 76.1404C205.974 76.0878 206.045 76.0435 206.149 76.0073C206.253 75.9712 206.39 75.9433 206.562 75.9236C206.7 75.9078 206.867 75.8984 207.064 75.8952ZM13.9206 76.6034C14.2498 76.6034 14.579 76.6264 14.9082 76.6724C15.2374 76.7184 15.5451 76.7808 15.8313 76.8596C16.1176 76.9384 16.3716 77.0271 16.5935 77.1256C16.8153 77.2241 16.962 77.3062 17.0336 77.3719C17.1052 77.4376 17.1535 77.4934 17.1785 77.5394C17.2036 77.5854 17.225 77.6461 17.2429 77.7217C17.2608 77.7972 17.2733 77.8924 17.2805 78.0074L17.2885 78.2008L17.2912 78.436C17.2912 78.6265 17.2858 78.7874 17.2751 78.9188C17.2644 79.0501 17.2465 79.1585 17.2214 79.2439C17.1964 79.3293 17.1606 79.3917 17.1141 79.4311C17.0676 79.4705 17.005 79.4902 16.9262 79.4902C16.8607 79.4902 16.7628 79.4583 16.6325 79.3944L16.5505 79.3523C16.3788 79.2603 16.1677 79.1601 15.9172 79.0518C15.6668 78.9434 15.3769 78.8449 15.0477 78.7562C14.7186 78.6675 14.3572 78.6232 13.9636 78.6232C13.6559 78.6232 13.3875 78.6577 13.1585 78.7266C12.9295 78.7956 12.7381 78.8908 12.5842 79.0124C12.4304 79.1339 12.3159 79.28 12.2407 79.4508C12.1656 79.6216 12.128 79.8022 12.128 79.9927C12.128 80.2751 12.2121 80.5198 12.3803 80.7267C12.5484 80.9336 12.7739 81.1175 13.0565 81.2784C13.3392 81.4394 13.6594 81.5904 14.0172 81.7317C14.3751 81.8729 14.74 82.0223 15.1122 82.1799C15.4843 82.3376 15.8492 82.5166 16.2071 82.7169C16.5649 82.9173 16.8833 83.157 17.1624 83.4361C17.4415 83.7153 17.6669 84.0437 17.8387 84.4214C18.0104 84.7991 18.0963 85.2441 18.0963 85.7564C18.0963 86.4264 17.9603 87.0143 17.6884 87.52C17.4164 88.0258 17.0479 88.4478 16.5828 88.7861C16.1176 89.1243 15.5737 89.3789 14.9511 89.5496C14.3285 89.7204 13.663 89.8058 12.9546 89.8058C12.4751 89.8058 12.0296 89.7697 11.6181 89.6974C11.2066 89.6252 10.8435 89.5381 10.5286 89.4363C10.2137 89.3345 9.95073 89.2278 9.73962 89.1161C9.52852 89.0045 9.37645 88.9059 9.28342 88.8206C9.19038 88.7352 9.12419 88.612 9.08483 88.4511C9.04547 88.2902 9.02579 88.0586 9.02579 87.7565C9.02579 87.5529 9.03295 87.3821 9.04726 87.2442C9.06157 87.1062 9.08483 86.9946 9.11703 86.9092C9.14924 86.8238 9.19217 86.763 9.24585 86.7269C9.29952 86.6908 9.36213 86.6727 9.4337 86.6727C9.51719 86.6727 9.62925 86.7103 9.76989 86.7856L9.8577 86.8353C10.0402 86.9436 10.2745 87.0635 10.5608 87.1949C10.847 87.3263 11.1888 87.4461 11.5859 87.5545C11.9831 87.6629 12.4429 87.7171 12.9653 87.7171C13.3088 87.7171 13.6165 87.6793 13.8884 87.6038C14.1604 87.5282 14.3912 87.4215 14.5808 87.2836C14.7704 87.1456 14.9154 86.9749 15.0155 86.7712C15.1157 86.5676 15.1658 86.341 15.1658 86.0914C15.1658 85.8024 15.0799 85.5544 14.9082 85.3475C14.7364 85.1406 14.5128 84.9567 14.2373 84.7958C13.9618 84.6349 13.6487 84.4838 13.298 84.3426C12.9474 84.2014 12.586 84.0519 12.2139 83.8943C11.8418 83.7366 11.4804 83.5577 11.1297 83.3573C10.7791 83.157 10.466 82.9173 10.1905 82.6381C9.91495 82.3589 9.69132 82.0289 9.51957 81.6479C9.34782 81.2669 9.26195 80.8104 9.26195 80.2784C9.26195 79.6675 9.38539 79.1306 9.63228 78.6675C9.87917 78.2045 10.2119 77.8202 10.6306 77.5148C11.0492 77.2093 11.543 76.9811 12.1119 76.83C12.6808 76.679 13.2837 76.6034 13.9206 76.6034ZM103.526 79.8942C104.277 79.8942 104.92 79.9615 105.453 80.0961C105.986 80.2308 106.424 80.4377 106.768 80.7168C107.111 80.996 107.362 81.3556 107.519 81.7957C107.677 82.2358 107.755 82.758 107.755 83.3623V89.2738C107.755 89.3657 107.719 89.438 107.648 89.4905C107.576 89.5431 107.464 89.5808 107.31 89.6038C107.182 89.623 107.002 89.6342 106.772 89.6374L106.628 89.6383C106.306 89.6383 106.072 89.6268 105.925 89.6038C105.778 89.5808 105.675 89.5431 105.614 89.4905C105.553 89.438 105.523 89.3657 105.523 89.2738V88.5742C105.129 88.9618 104.68 89.2639 104.175 89.4807C103.671 89.6974 103.111 89.8058 102.495 89.8058C101.987 89.8058 101.52 89.745 101.095 89.6235C100.669 89.502 100.3 89.3214 99.989 89.0816C99.6777 88.8419 99.4362 88.5447 99.2644 88.19C99.0927 87.8353 99.0068 87.4215 99.0068 86.9486C99.0068 86.4362 99.1159 85.9912 99.3342 85.6136C99.5525 85.2359 99.8781 84.9239 100.311 84.6776C100.744 84.4313 101.282 84.249 101.927 84.1308C102.571 84.0125 103.318 83.9534 104.17 83.9534H105.104V83.4214C105.104 83.1455 105.073 82.9041 105.013 82.6972C104.952 82.4903 104.852 82.3179 104.712 82.1799C104.573 82.042 104.386 81.9402 104.154 81.8745C103.921 81.8088 103.633 81.776 103.29 81.776C102.839 81.776 102.436 81.822 102.082 81.9139C101.728 82.0059 101.415 82.1077 101.143 82.2194C100.871 82.331 100.644 82.4328 100.461 82.5248C100.279 82.6167 100.13 82.6627 100.016 82.6627C99.9371 82.6627 99.8673 82.6397 99.8065 82.5938C99.7457 82.5478 99.6956 82.4821 99.6562 82.3967C99.6169 82.3113 99.5864 82.2062 99.565 82.0814C99.5435 81.9566 99.5328 81.8187 99.5328 81.6676C99.5328 81.464 99.5507 81.3031 99.5864 81.1848C99.6222 81.0666 99.6902 80.9599 99.7904 80.8646C99.8906 80.7694 100.066 80.6643 100.316 80.5494C100.567 80.4344 100.86 80.3277 101.197 80.2291C101.533 80.1306 101.9 80.0502 102.297 79.9878C102.694 79.9254 103.104 79.8942 103.526 79.8942ZM47.524 79.8942C48.2754 79.8942 48.9176 79.9615 49.4508 80.0961C49.9839 80.2308 50.4222 80.4377 50.7657 80.7168C51.1092 80.996 51.3597 81.3556 51.5171 81.7957C51.6746 82.2358 51.7533 82.758 51.7533 83.3623V89.2738C51.7533 89.3657 51.7175 89.438 51.6459 89.4905C51.5744 89.5431 51.4617 89.5808 51.3078 89.6038C51.1796 89.623 51.0004 89.6342 50.7704 89.6374L50.6262 89.6383C50.3042 89.6383 50.0698 89.6268 49.9231 89.6038C49.7764 89.5808 49.6726 89.5431 49.6118 89.4905C49.551 89.438 49.5206 89.3657 49.5206 89.2738V88.5742C49.127 88.9618 48.6779 89.2639 48.1734 89.4807C47.6689 89.6974 47.1089 89.8058 46.4935 89.8058C45.9854 89.8058 45.5184 89.745 45.0926 89.6235C44.6668 89.502 44.2983 89.3214 43.987 89.0816C43.6757 88.8419 43.4342 88.5447 43.2624 88.19C43.0907 87.8353 43.0048 87.4215 43.0048 86.9486C43.0048 86.4362 43.114 85.9912 43.3322 85.6136C43.5505 85.2359 43.8761 84.9239 44.309 84.6776C44.742 84.4313 45.2805 84.249 45.9246 84.1308C46.5686 84.0125 47.3164 83.9534 48.168 83.9534H49.1019V83.4214C49.1019 83.1455 49.0715 82.9041 49.0107 82.6972C48.9498 82.4903 48.8497 82.3179 48.7101 82.1799C48.5706 82.042 48.3845 81.9402 48.1519 81.8745C47.9193 81.8088 47.6313 81.776 47.2878 81.776C46.837 81.776 46.4344 81.822 46.0802 81.9139C45.726 82.0059 45.4129 82.1077 45.141 82.2194C44.869 82.331 44.6418 82.4328 44.4593 82.5248C44.2768 82.6167 44.1283 82.6627 44.0138 82.6627C43.9351 82.6627 43.8654 82.6397 43.8045 82.5938C43.7437 82.5478 43.6936 82.4821 43.6542 82.3967C43.6149 82.3113 43.5845 82.2062 43.563 82.0814C43.5415 81.9566 43.5308 81.8187 43.5308 81.6676C43.5308 81.464 43.5487 81.3031 43.5845 81.1848C43.6203 81.0666 43.6882 80.9599 43.7884 80.8646C43.8886 80.7694 44.0639 80.6643 44.3144 80.5494C44.5649 80.4344 44.8583 80.3277 45.1946 80.2291C45.531 80.1306 45.8977 80.0502 46.2949 79.9878C46.6921 79.9254 47.1017 79.8942 47.524 79.8942ZM215.416 79.8942C216.167 79.8942 216.81 79.9615 217.343 80.0961C217.876 80.2308 218.314 80.4377 218.658 80.7168C219.001 80.996 219.252 81.3556 219.409 81.7957C219.567 82.2358 219.645 82.758 219.645 83.3623V89.2738C219.645 89.3657 219.61 89.438 219.538 89.4905C219.466 89.5431 219.354 89.5808 219.2 89.6038C219.072 89.623 218.893 89.6342 218.662 89.6374L218.518 89.6383C218.196 89.6383 217.962 89.6268 217.815 89.6038C217.668 89.5808 217.565 89.5431 217.504 89.4905C217.443 89.438 217.413 89.3657 217.413 89.2738V88.5742C217.019 88.9618 216.57 89.2639 216.065 89.4807C215.561 89.6974 215.001 89.8058 214.386 89.8058C213.877 89.8058 213.41 89.745 212.985 89.6235C212.559 89.502 212.19 89.3214 211.879 89.0816C211.568 88.8419 211.326 88.5447 211.154 88.19C210.983 87.8353 210.897 87.4215 210.897 86.9486C210.897 86.4362 211.006 85.9912 211.224 85.6136C211.443 85.2359 211.768 84.9239 212.201 84.6776C212.634 84.4313 213.173 84.249 213.817 84.1308C214.461 84.0125 215.208 83.9534 216.06 83.9534H216.994V83.4214C216.994 83.1455 216.964 82.9041 216.903 82.6972C216.842 82.4903 216.742 82.3179 216.602 82.1799C216.463 82.042 216.277 81.9402 216.044 81.8745C215.811 81.8088 215.523 81.776 215.18 81.776C214.729 81.776 214.326 81.822 213.972 81.9139C213.618 82.0059 213.305 82.1077 213.033 82.2194C212.761 82.331 212.534 82.4328 212.351 82.5248C212.169 82.6167 212.02 82.6627 211.906 82.6627C211.827 82.6627 211.757 82.6397 211.697 82.5938C211.636 82.5478 211.586 82.4821 211.546 82.3967C211.507 82.3113 211.477 82.2062 211.455 82.0814C211.434 81.9566 211.423 81.8187 211.423 81.6676C211.423 81.464 211.441 81.3031 211.477 81.1848C211.512 81.0666 211.58 80.9599 211.68 80.8646C211.781 80.7694 211.956 80.6643 212.206 80.5494C212.457 80.4344 212.75 80.3277 213.087 80.2291C213.423 80.1306 213.79 80.0502 214.187 79.9878C214.584 79.9254 214.994 79.8942 215.416 79.8942ZM83.4781 79.8942C84.2295 79.8942 84.8718 79.9615 85.4049 80.0961C85.9381 80.2308 86.3764 80.4377 86.7199 80.7168C87.0634 80.996 87.3138 81.3556 87.4713 81.7957C87.6287 82.2358 87.7074 82.758 87.7074 83.3623V89.2738C87.7074 89.3657 87.6717 89.438 87.6001 89.4905C87.5285 89.5431 87.4158 89.5808 87.262 89.6038C87.1337 89.623 86.9546 89.6342 86.7245 89.6374L86.5803 89.6383C86.2583 89.6383 86.0239 89.6268 85.8772 89.6038C85.7305 89.5808 85.6268 89.5431 85.5659 89.4905C85.5051 89.438 85.4747 89.3657 85.4747 89.2738V88.5742C85.0811 88.9618 84.6321 89.2639 84.1275 89.4807C83.623 89.6974 83.0631 89.8058 82.4476 89.8058C81.9395 89.8058 81.4726 89.745 81.0468 89.6235C80.621 89.502 80.2524 89.3214 79.9412 89.0816C79.6299 88.8419 79.3883 88.5447 79.2166 88.19C79.0448 87.8353 78.959 87.4215 78.959 86.9486C78.959 86.4362 79.0681 85.9912 79.2864 85.6136C79.5046 85.2359 79.8302 84.9239 80.2632 84.6776C80.6961 84.4313 81.2346 84.249 81.8787 84.1308C82.5228 84.0125 83.2706 83.9534 84.1222 83.9534H85.0561V83.4214C85.0561 83.1455 85.0256 82.9041 84.9648 82.6972C84.904 82.4903 84.8038 82.3179 84.6643 82.1799C84.5247 82.042 84.3386 81.9402 84.1061 81.8745C83.8735 81.8088 83.5855 81.776 83.242 81.776C82.7911 81.776 82.3886 81.822 82.0343 81.9139C81.6801 82.0059 81.367 82.1077 81.0951 82.2194C80.8232 82.331 80.5959 82.4328 80.4135 82.5248C80.231 82.6167 80.0825 82.6627 79.968 82.6627C79.8893 82.6627 79.8195 82.6397 79.7587 82.5938C79.6978 82.5478 79.6478 82.4821 79.6084 82.3967C79.569 82.3113 79.5386 82.2062 79.5171 82.0814C79.4957 81.9566 79.4849 81.8187 79.4849 81.6676C79.4849 81.464 79.5028 81.3031 79.5386 81.1848C79.5744 81.0666 79.6424 80.9599 79.7426 80.8646C79.8428 80.7694 80.0181 80.6643 80.2686 80.5494C80.519 80.4344 80.8124 80.3277 81.1488 80.2291C81.4851 80.1306 81.8519 80.0502 82.249 79.9878C82.6462 79.9254 83.0559 79.8942 83.4781 79.8942ZM24.6315 79.8942C25.433 79.8942 26.1182 80.0025 26.6872 80.2193C27.2561 80.4361 27.723 80.7365 28.088 81.1208C28.453 81.5051 28.7213 81.9599 28.8931 82.4854C29.0648 83.0108 29.1507 83.5823 29.1507 84.1997V84.5938C29.1507 84.896 29.0773 85.1193 28.9306 85.2638C28.7839 85.4083 28.5818 85.4805 28.3242 85.4805H22.4954C22.4954 85.8549 22.5437 86.1949 22.6403 86.5003C22.7369 86.8057 22.8908 87.0652 23.1019 87.2786C23.313 87.4921 23.585 87.6547 23.9177 87.7663C24.2505 87.878 24.6494 87.9338 25.1146 87.9338C25.5869 87.9338 26.002 87.9026 26.3598 87.8402C26.7176 87.7778 27.0271 87.7089 27.2883 87.6333L27.5803 87.5458L27.8293 87.4646L27.9377 87.4264C28.1095 87.364 28.249 87.3328 28.3564 87.3328C28.4208 87.3328 28.4744 87.3443 28.5174 87.3673C28.5603 87.3903 28.5961 87.4314 28.6247 87.4905C28.6533 87.5496 28.673 87.6333 28.6838 87.7417C28.6918 87.823 28.6968 87.92 28.6988 88.0327L28.6999 88.1506C28.6999 88.2951 28.6963 88.4182 28.6891 88.5201C28.682 88.6219 28.6712 88.7089 28.6569 88.7812C28.6426 88.8534 28.6211 88.9142 28.5925 88.9634C28.5639 89.0127 28.5263 89.0603 28.4798 89.1063C28.4333 89.1523 28.3063 89.2147 28.0987 89.2935C27.8912 89.3723 27.6264 89.4495 27.3044 89.525C26.9824 89.6005 26.6138 89.6662 26.1988 89.7221C25.7837 89.7779 25.34 89.8058 24.8677 89.8058C24.0161 89.8058 23.2701 89.7073 22.6296 89.5102C21.9891 89.3132 21.4542 89.0143 21.0248 88.6137C20.5954 88.213 20.2752 87.7072 20.0641 87.0964C19.853 86.4855 19.7474 85.7696 19.7474 84.9485C19.7474 84.1669 19.8584 83.4624 20.0802 82.8351C20.302 82.2079 20.6241 81.6758 21.0463 81.239C21.4685 80.8022 21.982 80.4689 22.5867 80.239C23.1914 80.0091 23.873 79.8942 24.6315 79.8942ZM193.103 79.8942C193.754 79.8942 194.304 79.9927 194.751 80.1897C195.198 80.3868 195.56 80.6544 195.835 80.9927C196.111 81.331 196.309 81.7267 196.431 82.1799C196.553 82.6332 196.613 83.1783 196.613 83.8155V89.2442C196.613 89.3099 196.592 89.3674 196.549 89.4166C196.506 89.4659 196.434 89.507 196.334 89.5398C196.234 89.5726 196.096 89.5973 195.921 89.6137C195.781 89.6268 195.614 89.6347 195.421 89.6373L195.272 89.6383C195.007 89.6383 194.787 89.6301 194.611 89.6137C194.436 89.5973 194.298 89.5726 194.198 89.5398C194.098 89.507 194.026 89.4659 193.983 89.4166C193.941 89.3674 193.919 89.3099 193.919 89.2442V84.2293C193.919 83.8023 193.885 83.4673 193.817 83.2243C193.749 82.9813 193.651 82.7727 193.522 82.5987C193.393 82.4246 193.227 82.29 193.023 82.1947C192.819 82.0995 192.581 82.0519 192.309 82.0519C191.965 82.0519 191.618 82.1668 191.268 82.3967C190.917 82.6266 190.552 82.9616 190.173 83.4017V89.2442C190.173 89.3099 190.151 89.3674 190.108 89.4166C190.065 89.4659 189.992 89.507 189.888 89.5398C189.785 89.5726 189.647 89.5973 189.475 89.6137C189.338 89.6268 189.17 89.6347 188.974 89.6373L188.82 89.6383C188.555 89.6383 188.337 89.6301 188.165 89.6137C187.994 89.5973 187.856 89.5726 187.752 89.5398C187.648 89.507 187.575 89.4659 187.532 89.4166C187.489 89.3674 187.468 89.3099 187.468 89.2442V80.4558C187.468 80.3901 187.486 80.3326 187.521 80.2833C187.557 80.2341 187.622 80.193 187.715 80.1602C187.808 80.1273 187.928 80.1027 188.074 80.0863C188.221 80.0699 188.405 80.0617 188.627 80.0617L188.883 80.0656C189.001 80.0695 189.106 80.0764 189.196 80.0863C189.346 80.1027 189.463 80.1273 189.545 80.1602C189.627 80.193 189.686 80.2341 189.722 80.2833C189.758 80.3326 189.776 80.3901 189.776 80.4558V81.4706C190.305 80.9451 190.844 80.551 191.391 80.2883C191.939 80.0255 192.509 79.8942 193.103 79.8942ZM178.953 76.7713L179.625 76.7736L180.138 76.7857C180.389 76.7955 180.584 76.8185 180.723 76.8547C180.863 76.8908 180.963 76.945 181.024 77.0172C181.069 77.0714 181.11 77.1404 181.145 77.2241L185.473 88.6137C185.559 88.8501 185.613 89.0373 185.634 89.1752C185.656 89.3132 185.627 89.4166 185.548 89.4856C185.47 89.5546 185.33 89.5973 185.13 89.6137C184.996 89.6246 184.829 89.6319 184.629 89.6356L184.303 89.6383C183.938 89.6383 183.654 89.6334 183.45 89.6235C183.246 89.6137 183.09 89.594 182.983 89.5644C182.875 89.5349 182.8 89.4938 182.757 89.4413C182.714 89.3887 182.679 89.3198 182.65 89.2344L181.716 86.6727H176.499L175.619 89.1654C175.59 89.2574 175.553 89.3345 175.506 89.3969C175.46 89.4593 175.385 89.5086 175.281 89.5447C175.177 89.5808 175.03 89.6055 174.841 89.6186L174.641 89.6292L174.404 89.6358L174.095 89.6383C173.766 89.6383 173.508 89.6285 173.322 89.6088C173.136 89.5891 173.007 89.5414 172.935 89.4659C172.864 89.3904 172.839 89.2836 172.86 89.1457C172.882 89.0078 172.935 88.8238 173.021 88.5939L177.304 77.2832C177.347 77.1716 177.397 77.0813 177.455 77.0123C177.512 76.9433 177.603 76.8908 177.728 76.8547C177.854 76.8185 178.027 76.7955 178.249 76.7857L178.635 76.7746L178.953 76.7713ZM164.491 80.0617C164.756 80.0617 164.974 80.0715 165.146 80.0912C165.318 80.1109 165.456 80.1388 165.559 80.175C165.663 80.2111 165.737 80.2538 165.779 80.303C165.822 80.3523 165.844 80.4098 165.844 80.4755V89.2442C165.844 89.3099 165.822 89.3674 165.779 89.4166C165.737 89.4659 165.663 89.507 165.559 89.5398C165.456 89.5726 165.318 89.5973 165.146 89.6137C165.009 89.6268 164.842 89.6347 164.645 89.6373L164.491 89.6383C164.227 89.6383 164.008 89.6301 163.837 89.6137C163.665 89.5973 163.527 89.5726 163.423 89.5398C163.32 89.507 163.246 89.4659 163.203 89.4166C163.16 89.3674 163.139 89.3099 163.139 89.2442V80.4755C163.139 80.4098 163.16 80.3523 163.203 80.303C163.246 80.2538 163.32 80.2111 163.423 80.175C163.527 80.1388 163.665 80.1109 163.837 80.0912C164.008 80.0715 164.227 80.0617 164.491 80.0617ZM149.897 80.0617C150.161 80.0617 150.38 80.0715 150.551 80.0912C150.723 80.1109 150.861 80.1388 150.965 80.175C151.068 80.2111 151.142 80.2538 151.185 80.303C151.228 80.3523 151.249 80.4098 151.249 80.4755V89.2442C151.249 89.3099 151.228 89.3674 151.185 89.4166C151.142 89.4659 151.068 89.507 150.965 89.5398C150.861 89.5726 150.723 89.5973 150.551 89.6137C150.414 89.6268 150.247 89.6347 150.05 89.6373L149.897 89.6383C149.632 89.6383 149.414 89.6301 149.242 89.6137C149.07 89.5973 148.932 89.5726 148.829 89.5398C148.725 89.507 148.651 89.4659 148.608 89.4166C148.566 89.3674 148.544 89.3099 148.544 89.2442V80.4755C148.544 80.4098 148.566 80.3523 148.608 80.303C148.651 80.2538 148.725 80.2111 148.829 80.175C148.932 80.1388 149.07 80.1109 149.242 80.0912C149.414 80.0715 149.632 80.0617 149.897 80.0617ZM129.207 80.0617C129.472 80.0617 129.69 80.0715 129.862 80.0912C130.034 80.1109 130.172 80.1388 130.275 80.175C130.379 80.2111 130.453 80.2538 130.495 80.303C130.538 80.3523 130.56 80.4098 130.56 80.4755V89.2442C130.56 89.3099 130.538 89.3674 130.495 89.4166C130.453 89.4659 130.379 89.507 130.275 89.5398C130.172 89.5726 130.034 89.5973 129.862 89.6137C129.725 89.6268 129.558 89.6347 129.361 89.6373L129.207 89.6383C128.943 89.6383 128.724 89.6301 128.553 89.6137C128.381 89.5973 128.243 89.5726 128.139 89.5398C128.036 89.507 127.962 89.4659 127.919 89.4166C127.876 89.3674 127.855 89.3099 127.855 89.2442V80.4755C127.855 80.4098 127.876 80.3523 127.919 80.303C127.962 80.2538 128.036 80.2111 128.139 80.175C128.243 80.1388 128.381 80.1109 128.553 80.0912C128.724 80.0715 128.943 80.0617 129.207 80.0617ZM37.221 79.8942C37.8722 79.8942 38.4214 79.9927 38.8687 80.1897C39.3159 80.3868 39.6773 80.6544 39.9528 80.9927C40.2284 81.331 40.4269 81.7267 40.5486 82.1799C40.6703 82.6332 40.7311 83.1783 40.7311 83.8155V89.2442C40.7311 89.3099 40.7096 89.3674 40.6667 89.4166C40.6237 89.4659 40.5522 89.507 40.452 89.5398C40.3518 89.5726 40.2141 89.5973 40.0387 89.6137C39.8985 89.6268 39.7319 89.6347 39.5389 89.6373L39.3893 89.6383C39.1245 89.6383 38.9045 89.6301 38.7291 89.6137C38.5538 89.5973 38.4161 89.5726 38.3159 89.5398C38.2157 89.507 38.1441 89.4659 38.1012 89.4166C38.0582 89.3674 38.0368 89.3099 38.0368 89.2442V84.2293C38.0368 83.8023 38.0028 83.4673 37.9348 83.2243C37.8668 82.9813 37.7684 82.7727 37.6396 82.5987C37.5108 82.4246 37.3444 82.29 37.1405 82.1947C36.9365 82.0995 36.6986 82.0519 36.4266 82.0519C36.0831 82.0519 35.736 82.1668 35.3854 82.3967C35.0347 82.6266 34.6698 82.9616 34.2905 83.4017V89.2442C34.2905 89.3099 34.269 89.3674 34.2261 89.4166C34.1832 89.4659 34.1098 89.507 34.006 89.5398C33.9023 89.5726 33.7645 89.5973 33.5928 89.6137C33.4554 89.6268 33.2882 89.6347 33.0913 89.6373L32.938 89.6383C32.6732 89.6383 32.4549 89.6301 32.2832 89.6137C32.1114 89.5973 31.9737 89.5726 31.8699 89.5398C31.7661 89.507 31.6928 89.4659 31.6499 89.4166C31.6069 89.3674 31.5854 89.3099 31.5854 89.2442V80.4558C31.5854 80.3901 31.6033 80.3326 31.6391 80.2833C31.6749 80.2341 31.7393 80.193 31.8323 80.1602C31.9254 80.1273 32.0452 80.1027 32.1919 80.0863C32.3386 80.0699 32.5229 80.0617 32.7448 80.0617L33.0007 80.0656C33.1192 80.0695 33.2235 80.0764 33.3137 80.0863C33.464 80.1027 33.5802 80.1273 33.6625 80.1602C33.7448 80.193 33.8039 80.2341 33.8397 80.2833C33.8754 80.3326 33.8933 80.3901 33.8933 80.4558V81.4706C34.4229 80.9451 34.9614 80.551 35.5088 80.2883C36.0563 80.0255 36.627 79.8942 37.221 79.8942ZM60.2959 79.8942C60.9471 79.8942 61.4963 79.9927 61.9436 80.1897C62.3909 80.3868 62.7522 80.6544 63.0278 80.9927C63.3033 81.331 63.5018 81.7267 63.6235 82.1799C63.7452 82.6332 63.806 83.1783 63.806 83.8155V89.2442C63.806 89.3099 63.7845 89.3674 63.7416 89.4166C63.6986 89.4659 63.6271 89.507 63.5269 89.5398C63.4267 89.5726 63.289 89.5973 63.1136 89.6137C62.9734 89.6268 62.8068 89.6347 62.6138 89.6373L62.4642 89.6383C62.1994 89.6383 61.9794 89.6301 61.804 89.6137C61.6287 89.5973 61.491 89.5726 61.3908 89.5398C61.2906 89.507 61.219 89.4659 61.1761 89.4166C61.1331 89.3674 61.1117 89.3099 61.1117 89.2442V84.2293C61.1117 83.8023 61.0777 83.4673 61.0097 83.2243C60.9417 82.9813 60.8433 82.7727 60.7145 82.5987C60.5857 82.4246 60.4193 82.29 60.2154 82.1947C60.0114 82.0995 59.7735 82.0519 59.5015 82.0519C59.158 82.0519 58.811 82.1668 58.4603 82.3967C58.1096 82.6266 57.7447 82.9616 57.3654 83.4017V89.2442C57.3654 89.3099 57.3439 89.3674 57.301 89.4166C57.2581 89.4659 57.1847 89.507 57.0809 89.5398C56.9772 89.5726 56.8394 89.5973 56.6677 89.6137C56.5303 89.6268 56.3631 89.6347 56.1662 89.6373L56.0129 89.6383C55.7481 89.6383 55.5298 89.6301 55.3581 89.6137C55.1863 89.5973 55.0486 89.5726 54.9448 89.5398C54.841 89.507 54.7677 89.4659 54.7248 89.4166C54.6818 89.3674 54.6603 89.3099 54.6603 89.2442V80.4558C54.6603 80.3901 54.6782 80.3326 54.714 80.2833C54.7498 80.2341 54.8142 80.193 54.9072 80.1602C55.0003 80.1273 55.1201 80.1027 55.2668 80.0863C55.4135 80.0699 55.5978 80.0617 55.8197 80.0617L56.0756 80.0656C56.1941 80.0695 56.2984 80.0764 56.3886 80.0863C56.5389 80.1027 56.6551 80.1273 56.7374 80.1602C56.8197 80.193 56.8788 80.2341 56.9146 80.2833C56.9503 80.3326 56.9682 80.3901 56.9682 80.4558V81.4706C57.4978 80.9451 58.0363 80.551 58.5837 80.2883C59.1312 80.0255 59.7019 79.8942 60.2959 79.8942ZM105.104 85.5101H104.073C103.637 85.5101 103.265 85.5397 102.957 85.5988C102.649 85.6579 102.399 85.7466 102.206 85.8648C102.012 85.983 101.871 86.1259 101.782 86.2934C101.692 86.4609 101.647 86.653 101.647 86.8698C101.647 87.2376 101.774 87.5266 102.028 87.7368C102.283 87.947 102.635 88.0521 103.086 88.0521C103.465 88.0521 103.814 87.9634 104.132 87.786C104.451 87.6087 104.775 87.3493 105.104 87.0077V85.5101ZM85.0561 85.5101H84.0256C83.589 85.5101 83.2169 85.5397 82.9092 85.5988C82.6015 85.6579 82.351 85.7466 82.1578 85.8648C81.9646 85.983 81.8232 86.1259 81.7338 86.2934C81.6443 86.4609 81.5996 86.653 81.5996 86.8698C81.5996 87.2376 81.7266 87.5266 81.9807 87.7368C82.2347 87.947 82.5872 88.0521 83.038 88.0521C83.4173 88.0521 83.7661 87.9634 84.0846 87.786C84.4031 87.6087 84.7269 87.3493 85.0561 87.0077V85.5101ZM216.994 85.5101H215.963C215.527 85.5101 215.155 85.5397 214.847 85.5988C214.539 85.6579 214.289 85.7466 214.096 85.8648C213.902 85.983 213.761 86.1259 213.672 86.2934C213.582 86.4609 213.538 86.653 213.538 86.8698C213.538 87.2376 213.665 87.5266 213.919 87.7368C214.173 87.947 214.525 88.0521 214.976 88.0521C215.355 88.0521 215.704 87.9634 216.023 87.786C216.295 87.634 216.572 87.4217 216.853 87.149L216.994 87.0077V85.5101ZM49.1019 85.5101H48.0714C47.6349 85.5101 47.2628 85.5397 46.9551 85.5988C46.6473 85.6579 46.3969 85.7466 46.2036 85.8648C46.0104 85.983 45.8691 86.1259 45.7796 86.2934C45.6902 86.4609 45.6455 86.653 45.6455 86.8698C45.6455 87.2376 45.7725 87.5266 46.0265 87.7368C46.2806 87.947 46.633 88.0521 47.0839 88.0521C47.4631 88.0521 47.812 87.9634 48.1305 87.786C48.4489 87.6087 48.7727 87.3493 49.1019 87.0077V85.5101ZM203.653 81.9928C203.302 81.9928 203 82.0732 202.746 82.2341C202.492 82.3951 202.288 82.6102 202.134 82.8795C201.98 83.1488 201.866 83.4493 201.791 83.781C201.716 84.1127 201.678 84.4526 201.678 84.8007C201.678 85.1685 201.71 85.5265 201.775 85.8746C201.839 86.2228 201.945 86.5331 202.091 86.8057C202.238 87.0783 202.433 87.2967 202.676 87.4609C202.92 87.6251 203.227 87.7072 203.599 87.7072C203.786 87.7072 203.966 87.6826 204.142 87.6333C204.317 87.5841 204.496 87.5036 204.678 87.3919C204.861 87.2803 205.049 87.1341 205.242 86.9535C205.435 86.7729 205.646 86.5512 205.875 86.2885V83.3721C205.489 82.9255 205.118 82.5839 204.764 82.3474C204.41 82.111 204.04 81.9928 203.653 81.9928ZM120.021 81.9928C119.67 81.9928 119.368 82.0732 119.114 82.2341C118.86 82.3951 118.656 82.6102 118.502 82.8795C118.348 83.1488 118.233 83.4493 118.158 83.781C118.083 84.1127 118.046 84.4526 118.046 84.8007C118.046 85.1685 118.078 85.5265 118.142 85.8746C118.207 86.2228 118.312 86.5331 118.459 86.8057C118.606 87.0783 118.801 87.2967 119.044 87.4609C119.287 87.6251 119.595 87.7072 119.967 87.7072C120.153 87.7072 120.334 87.6826 120.509 87.6333C120.684 87.5841 120.863 87.5036 121.046 87.3919C121.228 87.2803 121.416 87.1341 121.609 86.9535C121.803 86.7729 122.014 86.5512 122.243 86.2885V83.3721C121.856 82.9255 121.486 82.5839 121.132 82.3474C120.777 82.111 120.407 81.9928 120.021 81.9928ZM179.097 79.2636H179.086L177.122 84.6825H181.061L179.097 79.2636ZM24.5671 81.6479C24.2236 81.6479 23.9249 81.707 23.6708 81.8253C23.4168 81.9435 23.2057 82.1028 23.0375 82.3031C22.8693 82.5034 22.7405 82.7399 22.6511 83.0125C22.5616 83.2851 22.5097 83.5757 22.4954 83.8844H26.5315C26.553 83.1882 26.4009 82.6414 26.0753 82.244C25.7497 81.8466 25.247 81.6479 24.5671 81.6479ZM75.1592 76.5611C75.7603 76.5611 76.1683 76.6547 76.3829 76.8419C76.5976 77.0291 76.705 77.3625 76.705 77.842C76.705 78.3412 76.594 78.686 76.3722 78.8765C76.1504 79.067 75.7389 79.1622 75.1377 79.1622C74.5295 79.1622 74.1198 79.0703 73.9087 78.8863C73.6976 78.7024 73.592 78.3707 73.592 77.8912C73.592 77.392 73.7011 77.0456 73.9194 76.8518C74.1377 76.658 74.5509 76.5611 75.1592 76.5611ZM129.218 76.1995C129.819 76.1995 130.227 76.2931 130.442 76.4803C130.656 76.6675 130.764 77.0008 130.764 77.4803C130.764 77.9795 130.653 78.3243 130.431 78.5148C130.209 78.7053 129.798 78.8005 129.197 78.8005C128.588 78.8005 128.179 78.7086 127.968 78.5247C127.756 78.3407 127.651 78.009 127.651 77.5296C127.651 77.0304 127.76 76.6839 127.978 76.4901C128.197 76.2963 128.61 76.1995 129.218 76.1995ZM149.907 76.1995C150.508 76.1995 150.916 76.2931 151.131 76.4803C151.346 76.6675 151.453 77.0008 151.453 77.4803C151.453 77.9795 151.342 78.3243 151.12 78.5148C150.898 78.7053 150.487 78.8005 149.886 78.8005C149.278 78.8005 148.868 78.7086 148.657 78.5247C148.446 78.3407 148.34 78.009 148.34 77.5296C148.34 77.0304 148.449 76.6839 148.668 76.4901C148.886 76.2963 149.299 76.1995 149.907 76.1995ZM164.502 76.1995C165.103 76.1995 165.511 76.2931 165.726 76.4803C165.941 76.6675 166.048 77.0008 166.048 77.4803C166.048 77.9795 165.937 78.3243 165.715 78.5148C165.493 78.7053 165.082 78.8005 164.481 78.8005C163.872 78.8005 163.463 78.7086 163.252 78.5247C163.04 78.3407 162.935 78.009 162.935 77.5296C162.935 77.0304 163.044 76.6839 163.262 76.4901C163.481 76.2963 163.894 76.1995 164.502 76.1995ZM34.2367 0C43.2541 0 52.8854 2.11419 62.0835 6.12478L62.3196 6.22118L62.4288 6.44046C66.6917 14.6948 68.94 23.5572 68.94 32.087C68.94 40.398 66.8741 48.7066 62.7882 56.7867L62.4002 57.5419L62.1629 57.6424C53.6713 61.3313 44.0955 63.2842 34.4728 63.2842C25.3897 63.2842 16.0557 61.2315 6.73393 57.1705L6.50504 57.0673L6.39581 56.8533C2.21254 48.7484 0 39.8837 0 31.2106C0 22.5505 2.12159 14.0651 6.30787 5.97082L6.42292 5.75573L6.65586 5.64866C15.2795 1.89909 24.5557 0 34.2367 0ZM34.2367 1.33825C24.8641 1.33825 15.8807 3.16267 7.51816 6.76244C3.50407 14.6075 1.46087 22.8282 1.46087 31.2106C1.46087 39.6085 3.58386 48.1995 7.59659 56.0588C16.6523 59.9689 25.6841 61.9436 34.4728 61.9436C43.7914 61.9436 53.059 60.0734 61.3089 56.5296C65.4076 48.5361 67.4843 40.3089 67.4843 32.087C67.4843 23.831 65.3162 15.244 61.2152 7.23208C52.2888 3.38048 42.9659 1.33825 34.2367 1.33825ZM31.8892 53.458L34.0293 53.5432C35.0409 53.5889 35.3054 54.3466 35.274 55.0703C35.2442 55.5099 35.095 56.0014 34.6774 56.2677C34.3347 56.4944 33.8942 56.5478 33.4865 56.5296L32.7889 56.4945L32.6497 58.6373L31.554 58.5711L31.8892 53.458ZM170.77 5.00968L182.495 10.6896L173.989 24.8601C170.779 22.4669 166.858 20.7061 161.857 20.7061C150.02 20.7061 145.212 28.8042 145.212 34.509C145.212 38.7439 148.232 44.9912 158.765 44.9912C163.185 44.9912 169.47 42.1687 171.279 40.8841L162.867 57.3239L161.74 57.5358L159.249 58.0265C157.581 58.3486 156.27 58.5496 154.145 58.61C135.294 59.1263 127.677 48.4971 127.682 37.6366C127.695 23.2781 141.603 5.81701 164.658 5.81701C166.071 5.81701 167.799 6.26549 169.277 6.76244L170.77 5.00968ZM42.0435 53.3734C42.2582 53.6134 42.3407 53.8162 42.3891 54.1068L42.4059 54.2201C42.4757 54.6581 42.3376 55.164 41.8007 55.4157V55.4314C42.4001 55.4314 42.7626 55.827 42.8677 56.4945L42.8915 56.7236C42.9046 56.8827 42.9117 57.0824 42.8832 57.26C42.7613 57.9356 42.3221 58.1536 41.5803 58.2488L39.7471 58.477L38.9829 53.3566L40.8286 53.0997C41.2777 53.0434 41.8246 53.1153 42.0435 53.3734ZM26.6331 52.922L27.7558 53.0395L27.2583 56.6509L27.2451 56.7765C27.2179 57.1169 27.2745 57.4876 27.8624 57.5419C28.5145 57.5875 28.6624 57.191 28.7362 56.6977L29.2125 53.2066L30.3262 53.3253L29.8461 56.9012C29.6129 58.0349 29.1356 58.5301 27.7771 58.3755C26.3945 58.2152 26.0663 57.6372 26.15 56.4945L26.6331 52.922ZM20.3612 57.1569L21.5618 52.0707L23.4816 52.4684C24.6054 52.6914 24.945 53.1503 24.786 54.0959C24.6997 54.61 24.4338 55.1616 23.8008 55.1779L23.71 55.1757L23.7851 55.2017C24.2575 55.3808 24.3232 55.6309 24.2497 56.0318L24.2319 56.1201C24.1863 56.3251 23.8737 57.5681 24.0897 57.7683L24.0968 57.9213L22.9315 57.6424C22.9047 57.4509 22.9437 57.1746 22.9948 56.908L23.1562 56.1267C23.2037 55.8603 23.212 55.5692 22.9485 55.4431C22.6858 55.3144 22.5878 55.3205 22.2909 55.2581L21.988 55.2018L21.4878 57.3806L20.3612 57.1569ZM47.2024 53.2125L47.2413 53.3303C47.2811 53.4568 47.3308 53.5821 47.3495 53.7097L46.3378 53.9015L46.2664 53.7012L46.2137 53.5657C46.0994 53.2931 45.9281 53.0268 45.6115 53.0601C44.7945 53.1503 45.0646 54.083 45.1485 54.4731L45.4814 56.002C45.5829 56.4205 45.7925 56.9633 46.4315 56.8454C47.0055 56.7396 46.7554 55.9195 46.7044 55.583L47.7415 55.3973C47.7558 55.4926 47.7727 55.5985 47.7785 55.6937C47.928 56.6275 47.7415 57.4011 46.5977 57.6137C44.9579 57.9031 44.6037 57.0058 44.3129 55.7201L44.1268 54.8682L44.0678 54.524L44.0357 54.304C43.9037 53.2959 44.0439 52.5532 45.4425 52.2974C46.3275 52.1494 46.9266 52.4501 47.2024 53.2125ZM40.8614 55.9868L40.4577 56.0442L40.7136 57.5887L41.1529 57.5333C41.2964 57.5141 41.4335 57.4869 41.5491 57.4192C41.815 57.26 41.7906 56.9196 41.7537 56.6665C41.6613 56.1112 41.5036 55.9 40.8614 55.9868ZM92.7647 5.45426L108.52 5.43431L114.591 5.44545C115.227 5.44791 115.822 5.45083 116.366 5.45426C125.243 5.49986 130.259 9.92268 130.259 16.3109C130.259 22.2009 124.968 27.4139 119.161 30.1096C125.14 32.1273 125.657 37.0796 125.657 40.5827C125.657 49.0476 116.404 56.9563 104.375 56.9563H78.1431L88.3758 20.6918L84.1726 20.6695L92.7647 5.45426ZM217.591 5.45426L220 56.9563H202.075L202.064 48.1238H189.841L185.818 56.9563H166.378L186.702 20.1792L182.119 20.152L190.827 5.45426H217.591ZM50.3732 51.2673L53.2223 55.876L52.1525 56.1696L51.4774 54.9985L50.2895 55.326L50.4428 56.6576L49.3645 56.9468L49.0147 51.6478L50.3732 51.2673ZM18.2324 51.1797C19.1007 51.4026 19.6391 51.7537 19.6136 52.6796C19.6094 52.8858 19.5353 53.0958 19.4871 53.2991L18.4769 53.0434L18.5162 52.8856C18.6182 52.449 18.6205 52.1059 18.0065 51.9324C17.2134 51.7325 17.0205 52.6155 16.9109 52.9967L16.4629 54.51L16.4271 54.6529C16.341 55.0455 16.3498 55.5143 16.9109 55.6559C17.4879 55.7979 17.8375 55.2788 18.0463 54.5198L17.3401 54.3477L17.5843 53.5443L19.2455 54.0347L18.457 56.7123L17.6925 56.5218L17.8645 55.9556H17.843C17.4906 56.4186 17.0613 56.4671 16.685 56.4008C15.1247 56.0136 15.1829 55.1104 15.5244 53.8986L15.804 52.9404L15.9198 52.6087L15.9986 52.3988C16.3728 51.443 16.8556 50.8333 18.2324 51.1797ZM32.9237 54.2358L32.8203 55.7145L33.3871 55.7434C33.8475 55.7589 34.1529 55.5919 34.1927 54.9712C34.2154 54.3751 33.9696 54.2737 33.3728 54.2498L32.9237 54.2358ZM40.7296 53.817L40.1536 53.9015L40.3442 55.2136L40.5488 55.194L40.7214 55.1691C40.9306 55.1365 41.1547 55.0832 41.2619 54.9177L41.3113 54.8248C41.3679 54.7156 41.4132 54.5928 41.3657 54.3466C41.2951 53.9956 41.1721 53.7694 40.7296 53.817ZM22.4955 53.0395L22.1797 54.4141L22.9386 54.6018C23.399 54.6631 23.6549 54.4441 23.7459 53.9332C23.8282 53.4646 23.7216 53.2818 23.3083 53.1911L22.4955 53.0395ZM49.9086 52.098L50.19 54.4703L51.0482 54.2418L49.9086 52.098ZM33.7929 5.75465L34.0885 5.74877L34.1621 5.74962C40.0374 5.83766 45.0685 9.44167 45.0463 15.6223C45.036 20.8849 40.4295 23.7021 38.7696 25.7146C36.2817 28.7468 34.8878 32.1993 34.7981 37.6925L34.7766 39.4538L34.7677 41.0556C34.7621 43.0367 34.7757 44.9051 34.7905 46.2911L34.8124 48.0441H33.4937L33.4454 42.3466L33.4293 41.1028C33.414 40.0446 33.3937 38.9382 33.3659 37.8282C33.2266 32.3361 31.8808 28.7468 29.3941 25.7146C27.7486 23.7021 23.1377 20.8848 23.1189 15.6223C23.1012 9.5199 28.0083 5.92932 33.7929 5.75465ZM48.5451 21.3688L48.6967 21.3831C52.1709 21.6596 55.0794 22.96 56.6467 26.7005C58.0949 30.1866 56.7919 34.8232 51.9803 35.911L51.2042 36.0893L50.4194 36.2749C46.2019 37.2891 43.5925 38.1961 41.6402 39.4233C38.9756 41.1019 36.9508 44.3104 36.8883 48.0391L35.7529 48.0352L35.7505 40.1664L35.7681 38.4927C35.7736 38.2324 35.7803 38.0421 35.7885 37.9404C35.7308 28.0084 43.514 20.9732 48.5451 21.3688ZM56.3072 34.8429C57.6202 36.052 57.8575 38.7698 57.6274 40.3585C57.3545 42.1962 55.0199 45.2258 51.503 45.3445C49.7094 45.4109 47.5099 45.0711 46.0753 44.8089L45.3174 44.6651C43.0751 44.219 39.5043 45.5126 38.9347 48.0352L37.9039 48.0391C37.8858 44.8059 39.8509 41.947 42.4131 40.4106C44.7021 39.0528 47.7658 38.1607 52.6978 37.0117C54.2268 36.6531 55.8212 35.8574 56.3072 34.8429ZM32.3782 37.9404L32.3851 38.0513L32.3993 38.5075C32.4213 39.5409 32.4243 41.65 32.4226 43.7066L32.4166 48.0352L31.423 48.0391C31.3652 44.3104 29.1881 41.1019 26.5209 39.4233C24.3441 38.0514 21.3357 37.0796 16.185 35.911C11.3676 34.8232 10.072 30.1866 11.5212 26.7005C13.0523 23.0363 15.8775 21.7137 19.258 21.4013L19.47 21.3831C24.4904 20.8314 32.4378 27.9081 32.3782 37.9404ZM11.8523 34.8429C12.3467 35.8574 13.9427 36.6531 15.4686 37.0117L16.6973 37.3019L17.497 37.4965C21.2745 38.4286 23.7956 39.2492 25.7451 40.4106C28.2532 41.9104 30.1868 44.6705 30.2618 47.8088L30.2639 48.0391L29.2251 48.0352C28.6699 45.5652 25.2443 44.2734 22.9886 44.6394L22.3189 44.766L21.813 44.8582C20.3837 45.1115 18.3523 45.4068 16.6693 45.3445C13.1452 45.2258 10.805 42.1962 10.5378 40.3585C10.3077 38.7698 10.5451 36.052 11.8523 34.8429ZM106.627 35.4363H100.283L97.8821 43.9008H104.023C106.439 43.9008 109.731 42.7999 110.538 40.0453C111.335 37.283 109.033 35.4363 106.627 35.4363ZM201.948 21.2097L195.037 36.1901H202.157L201.948 21.2097ZM104.716 18.9897L102.898 26.3352H107.657C109.493 26.3352 112.735 25.9087 113.546 22.6469C114.434 19.1058 111.391 19.0106 109.932 19.0106L104.716 18.9897Z" fill="white"/>
</g>
</g>
</g>
</svg>
