<svg width="16" height="17" viewBox="0 0 16 17" fill="none" xmlns="http://www.w3.org/2000/svg">
<g id="svg">
<path id="Vector" d="M15.6243 8.32899L15.6399 8.42232V8.56232C15.6399 8.58306 15.6376 8.60677 15.6332 8.63343C15.6273 8.65862 15.6191 8.68158 15.6088 8.70232L15.5776 8.79788L15.531 8.90677L15.4532 9.03121L15.3754 9.12455L10.3288 14.0623C10.2443 14.1453 10.148 14.2082 10.0399 14.2512C9.93023 14.2927 9.81246 14.3134 9.68653 14.3134C9.56209 14.3134 9.44505 14.2927 9.33542 14.2512C9.22579 14.2082 9.12949 14.1453 9.04653 14.0623C8.89097 13.9068 8.80505 13.7194 8.78875 13.5001C8.77394 13.2808 8.83394 13.0882 8.96875 12.9223L9.04653 12.8134L12.5776 9.37566H1.26653C1.0369 9.37566 0.83616 9.30232 0.664308 9.15566C0.492456 9.01047 0.39616 8.82825 0.375419 8.60899L0.359863 8.5001C0.359863 8.27047 0.435419 8.07492 0.58653 7.91343C0.737641 7.75195 0.922086 7.65566 1.13986 7.62455H1.15542H1.26653H12.5776L9.04653 4.18677C8.89097 4.03121 8.80505 3.8438 8.78875 3.62455C8.77394 3.40677 8.83394 3.20899 8.96875 3.03121L9.04653 2.93788C9.12949 2.85492 9.22579 2.79269 9.33542 2.75121C9.44505 2.70825 9.56209 2.68677 9.68653 2.68677C9.79172 2.68677 9.88801 2.70232 9.97542 2.73343C10.0643 2.76603 10.145 2.80825 10.2176 2.8601L10.3288 2.93788L15.3754 7.87566C15.3962 7.8964 15.4139 7.91418 15.4288 7.92899C15.445 7.94529 15.4584 7.9638 15.4688 7.98455L15.531 8.09343L15.5932 8.21788L15.6243 8.32899Z" fill="white"/>
</g>
</svg>
