<svg width="16" height="17" viewBox="0 0 16 17" fill="none" xmlns="http://www.w3.org/2000/svg">
<g id="svg">
<path id="Vector" d="M1.84444 2.21875H14.1556C14.6667 2.21875 15.1015 2.39875 15.46 2.75875C15.82 3.11727 16 3.55208 16 4.06319V12.2654C16 12.7765 15.82 13.2113 15.46 13.5699C15.1015 13.9299 14.6667 14.1099 14.1556 14.1099H1.84444C1.33333 14.1099 0.898519 13.9299 0.54 13.5699C0.18 13.2113 0 12.7765 0 12.2654V4.06319C0 3.55208 0.18 3.11727 0.54 2.75875C0.898519 2.39875 1.33333 2.21875 1.84444 2.21875ZM14.36 4.95208L8.53111 9.81208C8.45852 9.8743 8.37778 9.92393 8.28889 9.96097C8.2 9.99801 8.1037 10.0165 8 10.0165C7.91704 10.0165 7.83926 10.0032 7.76667 9.97653C7.69259 9.94986 7.62444 9.92097 7.56222 9.88986H7.57778L7.46889 9.81208L1.64 4.95208V12.2654C1.64 12.3173 1.66074 12.3639 1.70222 12.4054C1.74519 12.4484 1.79259 12.4699 1.84444 12.4699H14.1556C14.2074 12.4699 14.2548 12.4484 14.2978 12.4054C14.3393 12.3639 14.36 12.3173 14.36 12.2654V4.95208ZM13.1244 3.85875H2.87556L8 8.12542L13.1244 3.85875Z" fill="white"/>
</g>
</svg>
