<svg width="17" height="17" viewBox="0 0 17 17" fill="none" xmlns="http://www.w3.org/2000/svg">
<g id="svg">
<path id="Vector" d="M12.7024 3.76538C13.1617 3.76538 13.5424 3.87501 13.8447 4.09427C14.1572 4.31205 14.4069 4.61649 14.5935 5.0076C14.7817 5.39871 14.9172 5.86464 15.0002 6.40538C15.0935 6.95797 15.1454 7.55723 15.1558 8.20316L15.1713 8.67205L15.1558 9.14094C15.1454 9.79723 15.0935 10.3958 15.0002 10.9365C14.9172 11.4891 14.7817 11.9609 14.5935 12.352C14.4069 12.7417 14.1572 13.0461 13.8447 13.2654C13.5424 13.4846 13.1617 13.5943 12.7024 13.5943H4.28244C3.82318 13.5943 3.43725 13.4795 3.12466 13.2498C2.81206 13.0202 2.56243 12.6972 2.37577 12.2809C2.18762 11.8646 2.05206 11.3698 1.9691 10.7965C1.88614 10.2232 1.83947 9.59797 1.8291 8.92094V8.43649C1.83947 7.75945 1.88614 7.13501 1.9691 6.56316C2.05206 5.98983 2.18762 5.49501 2.37577 5.07871C2.56243 4.66094 2.81206 4.33797 3.12466 4.10983C3.43725 3.8802 3.82318 3.76538 4.28244 3.76538H12.7024ZM12.7024 5.17205H4.28244C3.93873 5.17205 3.67799 5.53649 3.50021 6.26538C3.32243 6.99427 3.23355 7.79871 3.23355 8.67871C3.23355 9.5602 3.32243 10.3654 3.50021 11.0943C3.67799 11.8232 3.93873 12.1876 4.28244 12.1876H12.7024C13.0565 12.1876 13.3224 11.8232 13.5002 11.0943C13.678 10.3654 13.7669 9.5602 13.7669 8.67871C13.7669 7.79871 13.678 6.99427 13.5002 6.26538C13.3224 5.53649 13.0565 5.17205 12.7024 5.17205ZM7.68688 7.38983C7.72984 7.31723 7.78984 7.26834 7.86688 7.24316C7.9454 7.21649 8.02614 7.21871 8.1091 7.24983L8.17132 7.28094L9.81355 8.38983C9.8654 8.42094 9.90392 8.46316 9.9291 8.51649C9.95577 8.56834 9.9691 8.6202 9.9691 8.67205C9.9691 8.7239 9.96095 8.77057 9.94466 8.81205C9.92984 8.85353 9.90688 8.88983 9.87577 8.92094L9.81355 8.96983L8.17132 10.0632C8.14021 10.0839 8.1091 10.0995 8.07799 10.1098C8.04688 10.1202 8.01058 10.1254 7.9691 10.1254C7.88614 10.1254 7.81355 10.0995 7.75132 10.0476C7.68762 9.99575 7.6454 9.9276 7.62466 9.84316V9.78094V7.57871C7.62466 7.5476 7.62984 7.51353 7.64021 7.47649C7.65058 7.43946 7.66614 7.41057 7.68688 7.38983Z" fill="white"/>
</g>
</svg>
